<svg width="425" height="856" viewBox="0 0 425 856" fill="none" xmlns="http://www.w3.org/2000/svg">
<g filter="url(#filter0_i_50_877)">
<rect x="3" width="419" height="856" rx="62" fill="#1A1A1A"/>
</g>
<rect x="3.5" y="0.5" width="418" height="855" rx="61.5" stroke="url(#paint0_linear_50_877)" stroke-opacity="0.5"/>
<rect x="7" y="4" width="411" height="848" rx="58" fill="black"/>
<g filter="url(#filter1_i_50_877)">
<path d="M0 137.6C0 137.04 0 136.76 0.108993 136.546C0.204867 136.358 0.357847 136.205 0.546009 136.109C0.759921 136 1.03995 136 1.6 136H3V166H1.6C1.03995 166 0.759921 166 0.546009 165.891C0.357847 165.795 0.204867 165.642 0.108993 165.454C0 165.24 0 164.96 0 164.4V137.6Z" fill="#333333"/>
</g>
<g filter="url(#filter2_i_50_877)">
<path d="M0 199.6C0 199.04 0 198.76 0.108993 198.546C0.204867 198.358 0.357847 198.205 0.546009 198.109C0.759921 198 1.03995 198 1.6 198H3V260H1.6C1.03995 260 0.759921 260 0.546009 259.891C0.357847 259.795 0.204867 259.642 0.108993 259.454C0 259.24 0 258.96 0 258.4V199.6Z" fill="#333333"/>
</g>
<g filter="url(#filter3_i_50_877)">
<path d="M0 279.6C0 279.04 0 278.76 0.108993 278.546C0.204867 278.358 0.357847 278.205 0.546009 278.109C0.759921 278 1.03995 278 1.6 278H3V340H1.6C1.03995 340 0.759921 340 0.546009 339.891C0.357847 339.795 0.204867 339.642 0.108993 339.454C0 339.24 0 338.96 0 338.4V279.6Z" fill="#333333"/>
</g>
<g filter="url(#filter4_i_50_877)">
<path d="M422 220H423.4C423.96 220 424.24 220 424.454 220.109C424.642 220.205 424.795 220.358 424.891 220.546C425 220.76 425 221.04 425 221.6V318.4C425 318.96 425 319.24 424.891 319.454C424.795 319.642 424.642 319.795 424.454 319.891C424.24 320 423.96 320 423.4 320H422V220Z" fill="#333333"/>
</g>
<rect x="25" y="22" width="375" height="812" rx="40" fill="white"/>
<rect x="25" y="114" width="375" height="720" rx="30" fill="#D9D9D9"/>
<path d="M128.161 165.727C128.161 167.261 127.884 168.587 127.33 169.705C126.776 170.822 126.016 171.684 125.05 172.29C124.084 172.896 122.981 173.199 121.741 173.199C120.5 173.199 119.397 172.896 118.431 172.29C117.465 171.684 116.705 170.822 116.151 169.705C115.597 168.587 115.32 167.261 115.32 165.727C115.32 164.193 115.597 162.867 116.151 161.75C116.705 160.633 117.465 159.771 118.431 159.165C119.397 158.559 120.5 158.256 121.741 158.256C122.981 158.256 124.084 158.559 125.05 159.165C126.016 159.771 126.776 160.633 127.33 161.75C127.884 162.867 128.161 164.193 128.161 165.727ZM126.456 165.727C126.456 164.468 126.246 163.405 125.824 162.538C125.408 161.672 124.842 161.016 124.127 160.571C123.417 160.126 122.621 159.903 121.741 159.903C120.86 159.903 120.062 160.126 119.347 160.571C118.637 161.016 118.071 161.672 117.65 162.538C117.233 163.405 117.025 164.468 117.025 165.727C117.025 166.987 117.233 168.05 117.65 168.916C118.071 169.783 118.637 170.438 119.347 170.884C120.062 171.329 120.86 171.551 121.741 171.551C122.621 171.551 123.417 171.329 124.127 170.884C124.842 170.438 125.408 169.783 125.824 168.916C126.246 168.05 126.456 166.987 126.456 165.727ZM132.572 166.438V173H130.895V162.091H132.515V163.795H132.657C132.912 163.241 133.301 162.796 133.822 162.46C134.342 162.119 135.015 161.949 135.839 161.949C136.577 161.949 137.224 162.1 137.778 162.403C138.331 162.702 138.762 163.156 139.07 163.767C139.378 164.373 139.532 165.14 139.532 166.068V173H137.856V166.182C137.856 165.325 137.633 164.657 137.188 164.179C136.743 163.696 136.132 163.455 135.356 163.455C134.821 163.455 134.342 163.571 133.921 163.803C133.504 164.035 133.175 164.373 132.934 164.818C132.692 165.263 132.572 165.803 132.572 166.438ZM147.026 173.227C146.004 173.227 145.123 172.986 144.384 172.503C143.646 172.02 143.078 171.355 142.68 170.507C142.282 169.66 142.083 168.691 142.083 167.602C142.083 166.494 142.287 165.517 142.694 164.669C143.106 163.817 143.679 163.152 144.413 162.673C145.151 162.19 146.013 161.949 146.998 161.949C147.765 161.949 148.456 162.091 149.072 162.375C149.687 162.659 150.192 163.057 150.585 163.568C150.978 164.08 151.222 164.676 151.316 165.358H149.64C149.512 164.861 149.228 164.42 148.788 164.037C148.352 163.649 147.765 163.455 147.026 163.455C146.373 163.455 145.8 163.625 145.308 163.966C144.82 164.302 144.439 164.778 144.164 165.393C143.894 166.004 143.759 166.722 143.759 167.545C143.759 168.388 143.892 169.122 144.157 169.747C144.427 170.372 144.806 170.857 145.294 171.203C145.786 171.549 146.364 171.722 147.026 171.722C147.462 171.722 147.857 171.646 148.213 171.494C148.568 171.343 148.868 171.125 149.115 170.841C149.361 170.557 149.536 170.216 149.64 169.818H151.316C151.222 170.462 150.987 171.042 150.613 171.558C150.244 172.07 149.754 172.477 149.143 172.78C148.537 173.078 147.831 173.227 147.026 173.227ZM158.34 173.227C157.289 173.227 156.383 172.995 155.62 172.531C154.863 172.062 154.278 171.409 153.866 170.571C153.459 169.728 153.255 168.748 153.255 167.631C153.255 166.513 153.459 165.528 153.866 164.676C154.278 163.819 154.851 163.152 155.585 162.673C156.323 162.19 157.185 161.949 158.17 161.949C158.738 161.949 159.299 162.044 159.853 162.233C160.407 162.422 160.911 162.73 161.366 163.156C161.82 163.578 162.183 164.136 162.453 164.832C162.722 165.528 162.857 166.385 162.857 167.403V168.114H154.448V166.665H161.153C161.153 166.049 161.03 165.5 160.784 165.017C160.542 164.534 160.196 164.153 159.747 163.874C159.302 163.594 158.776 163.455 158.17 163.455C157.502 163.455 156.925 163.62 156.437 163.952C155.954 164.278 155.582 164.705 155.322 165.23C155.061 165.756 154.931 166.319 154.931 166.92V167.886C154.931 168.71 155.073 169.409 155.357 169.982C155.646 170.55 156.046 170.983 156.558 171.281C157.069 171.575 157.663 171.722 158.34 171.722C158.781 171.722 159.178 171.66 159.534 171.537C159.893 171.409 160.204 171.22 160.464 170.969C160.724 170.713 160.926 170.396 161.068 170.017L162.687 170.472C162.517 171.021 162.23 171.504 161.828 171.92C161.425 172.332 160.928 172.654 160.336 172.886C159.744 173.114 159.079 173.227 158.34 173.227Z" fill="black"/>
<rect x="46" y="38" width="333" height="50" rx="16" fill="#767676"/>
<path d="M79.161 62.7273C79.161 64.2614 78.8841 65.5871 78.3301 66.7045C77.7761 67.822 77.0162 68.6837 76.0502 69.2898C75.0843 69.8958 73.9811 70.1989 72.7406 70.1989C71.5001 70.1989 70.3968 69.8958 69.4309 69.2898C68.465 68.6837 67.7051 67.822 67.1511 66.7045C66.5971 65.5871 66.3201 64.2614 66.3201 62.7273C66.3201 61.1932 66.5971 59.8674 67.1511 58.75C67.7051 57.6326 68.465 56.7708 69.4309 56.1648C70.3968 55.5587 71.5001 55.2557 72.7406 55.2557C73.9811 55.2557 75.0843 55.5587 76.0502 56.1648C77.0162 56.7708 77.7761 57.6326 78.3301 58.75C78.8841 59.8674 79.161 61.1932 79.161 62.7273ZM77.4565 62.7273C77.4565 61.4678 77.2458 60.4048 76.8244 59.5384C76.4077 58.6719 75.8419 58.0161 75.127 57.571C74.4167 57.1259 73.6213 56.9034 72.7406 56.9034C71.8599 56.9034 71.0621 57.1259 70.3471 57.571C69.6369 58.0161 69.0711 58.6719 68.6497 59.5384C68.233 60.4048 68.0247 61.4678 68.0247 62.7273C68.0247 63.9867 68.233 65.0497 68.6497 65.9162C69.0711 66.7827 69.6369 67.4384 70.3471 67.8835C71.0621 68.3286 71.8599 68.5511 72.7406 68.5511C73.6213 68.5511 74.4167 68.3286 75.127 67.8835C75.8419 67.4384 76.4077 66.7827 76.8244 65.9162C77.2458 65.0497 77.4565 63.9867 77.4565 62.7273ZM83.5716 63.4375V70H81.8954V59.0909H83.5147V60.7955H83.6568C83.9125 60.2415 84.3007 59.7964 84.8216 59.4602C85.3424 59.1193 86.0147 58.9489 86.8386 58.9489C87.5772 58.9489 88.2235 59.1004 88.7775 59.4034C89.3315 59.7017 89.7624 60.1562 90.0701 60.767C90.3779 61.3731 90.5318 62.1402 90.5318 63.0682V70H88.8556V63.1818C88.8556 62.3248 88.6331 61.6572 88.188 61.179C87.743 60.696 87.1322 60.4545 86.3556 60.4545C85.8206 60.4545 85.3424 60.5705 84.921 60.8026C84.5043 61.0346 84.1752 61.3731 83.9338 61.8182C83.6923 62.2633 83.5716 62.803 83.5716 63.4375ZM98.0265 70.2273C97.0037 70.2273 96.123 69.9858 95.3844 69.5028C94.6458 69.0199 94.0776 68.3546 93.6799 67.5071C93.2821 66.6596 93.0833 65.6913 93.0833 64.6023C93.0833 63.4943 93.2869 62.5166 93.6941 61.669C94.106 60.8168 94.6789 60.1515 95.4128 59.6733C96.1515 59.1903 97.0132 58.9489 97.998 58.9489C98.7651 58.9489 99.4564 59.0909 100.072 59.375C100.687 59.6591 101.192 60.0568 101.585 60.5682C101.978 61.0795 102.222 61.6761 102.316 62.358H100.64C100.512 61.8608 100.228 61.4205 99.7878 61.0369C99.3522 60.6487 98.7651 60.4545 98.0265 60.4545C97.373 60.4545 96.8001 60.625 96.3077 60.9659C95.82 61.3021 95.4389 61.7779 95.1642 62.3935C94.8944 63.0043 94.7594 63.7216 94.7594 64.5455C94.7594 65.3883 94.892 66.1222 95.1571 66.7472C95.427 67.3722 95.8058 67.8575 96.2935 68.2031C96.7859 68.5488 97.3636 68.7216 98.0265 68.7216C98.4621 68.7216 98.8574 68.6458 99.2125 68.4943C99.5676 68.3428 99.8683 68.125 100.115 67.8409C100.361 67.5568 100.536 67.2159 100.64 66.8182H102.316C102.222 67.4621 101.987 68.0421 101.613 68.5582C101.244 69.0696 100.754 69.4768 100.143 69.7798C99.5369 70.0781 98.8314 70.2273 98.0265 70.2273ZM109.34 70.2273C108.289 70.2273 107.383 69.9953 106.62 69.5312C105.863 69.0625 105.278 68.4091 104.866 67.571C104.459 66.7282 104.255 65.7481 104.255 64.6307C104.255 63.5133 104.459 62.5284 104.866 61.6761C105.278 60.8191 105.851 60.1515 106.585 59.6733C107.323 59.1903 108.185 58.9489 109.17 58.9489C109.738 58.9489 110.299 59.0436 110.853 59.233C111.407 59.4223 111.911 59.7301 112.366 60.1562C112.82 60.5777 113.183 61.1364 113.453 61.8324C113.722 62.5284 113.857 63.3854 113.857 64.4034V65.1136H105.448V63.6648H112.153C112.153 63.0492 112.03 62.5 111.784 62.017C111.542 61.5341 111.196 61.1529 110.747 60.8736C110.302 60.5942 109.776 60.4545 109.17 60.4545C108.502 60.4545 107.925 60.6203 107.437 60.9517C106.954 61.2784 106.582 61.7045 106.322 62.2301C106.061 62.7557 105.931 63.3191 105.931 63.9205V64.8864C105.931 65.7102 106.073 66.4086 106.357 66.9815C106.646 67.5497 107.046 67.983 107.558 68.2812C108.069 68.5748 108.663 68.7216 109.34 68.7216C109.781 68.7216 110.178 68.66 110.534 68.5369C110.893 68.4091 111.204 68.2197 111.464 67.9688C111.724 67.7131 111.926 67.3958 112.068 67.017L113.687 67.4716C113.517 68.0208 113.23 68.5038 112.828 68.9205C112.425 69.3324 111.928 69.6544 111.336 69.8864C110.744 70.1136 110.079 70.2273 109.34 70.2273Z" fill="white"/>
<rect x="46" y="141" width="51" height="51" rx="8" fill="#767676"/>
<defs>
<filter id="filter0_i_50_877" x="3" y="0" width="419" height="856" filterUnits="userSpaceOnUse" color-interpolation-filters="sRGB">
<feFlood flood-opacity="0" result="BackgroundImageFix"/>
<feBlend mode="normal" in="SourceGraphic" in2="BackgroundImageFix" result="shape"/>
<feColorMatrix in="SourceAlpha" type="matrix" values="0 0 0 0 0 0 0 0 0 0 0 0 0 0 0 0 0 0 127 0" result="hardAlpha"/>
<feOffset/>
<feGaussianBlur stdDeviation="4"/>
<feComposite in2="hardAlpha" operator="arithmetic" k2="-1" k3="1"/>
<feColorMatrix type="matrix" values="0 0 0 0 1 0 0 0 0 1 0 0 0 0 1 0 0 0 0.9 0"/>
<feBlend mode="normal" in2="shape" result="effect1_innerShadow_50_877"/>
</filter>
<filter id="filter1_i_50_877" x="0" y="136" width="4" height="30" filterUnits="userSpaceOnUse" color-interpolation-filters="sRGB">
<feFlood flood-opacity="0" result="BackgroundImageFix"/>
<feBlend mode="normal" in="SourceGraphic" in2="BackgroundImageFix" result="shape"/>
<feColorMatrix in="SourceAlpha" type="matrix" values="0 0 0 0 0 0 0 0 0 0 0 0 0 0 0 0 0 0 127 0" result="hardAlpha"/>
<feOffset dx="1"/>
<feGaussianBlur stdDeviation="1"/>
<feComposite in2="hardAlpha" operator="arithmetic" k2="-1" k3="1"/>
<feColorMatrix type="matrix" values="0 0 0 0 1 0 0 0 0 1 0 0 0 0 1 0 0 0 0.5 0"/>
<feBlend mode="normal" in2="shape" result="effect1_innerShadow_50_877"/>
</filter>
<filter id="filter2_i_50_877" x="0" y="198" width="4" height="62" filterUnits="userSpaceOnUse" color-interpolation-filters="sRGB">
<feFlood flood-opacity="0" result="BackgroundImageFix"/>
<feBlend mode="normal" in="SourceGraphic" in2="BackgroundImageFix" result="shape"/>
<feColorMatrix in="SourceAlpha" type="matrix" values="0 0 0 0 0 0 0 0 0 0 0 0 0 0 0 0 0 0 127 0" result="hardAlpha"/>
<feOffset dx="1"/>
<feGaussianBlur stdDeviation="1"/>
<feComposite in2="hardAlpha" operator="arithmetic" k2="-1" k3="1"/>
<feColorMatrix type="matrix" values="0 0 0 0 1 0 0 0 0 1 0 0 0 0 1 0 0 0 0.5 0"/>
<feBlend mode="normal" in2="shape" result="effect1_innerShadow_50_877"/>
</filter>
<filter id="filter3_i_50_877" x="0" y="278" width="4" height="62" filterUnits="userSpaceOnUse" color-interpolation-filters="sRGB">
<feFlood flood-opacity="0" result="BackgroundImageFix"/>
<feBlend mode="normal" in="SourceGraphic" in2="BackgroundImageFix" result="shape"/>
<feColorMatrix in="SourceAlpha" type="matrix" values="0 0 0 0 0 0 0 0 0 0 0 0 0 0 0 0 0 0 127 0" result="hardAlpha"/>
<feOffset dx="1"/>
<feGaussianBlur stdDeviation="1"/>
<feComposite in2="hardAlpha" operator="arithmetic" k2="-1" k3="1"/>
<feColorMatrix type="matrix" values="0 0 0 0 1 0 0 0 0 1 0 0 0 0 1 0 0 0 0.5 0"/>
<feBlend mode="normal" in2="shape" result="effect1_innerShadow_50_877"/>
</filter>
<filter id="filter4_i_50_877" x="421" y="220" width="4" height="100" filterUnits="userSpaceOnUse" color-interpolation-filters="sRGB">
<feFlood flood-opacity="0" result="BackgroundImageFix"/>
<feBlend mode="normal" in="SourceGraphic" in2="BackgroundImageFix" result="shape"/>
<feColorMatrix in="SourceAlpha" type="matrix" values="0 0 0 0 0 0 0 0 0 0 0 0 0 0 0 0 0 0 127 0" result="hardAlpha"/>
<feOffset dx="-1"/>
<feGaussianBlur stdDeviation="1"/>
<feComposite in2="hardAlpha" operator="arithmetic" k2="-1" k3="1"/>
<feColorMatrix type="matrix" values="0 0 0 0 1 0 0 0 0 1 0 0 0 0 1 0 0 0 0.5 0"/>
<feBlend mode="normal" in2="shape" result="effect1_innerShadow_50_877"/>
</filter>
<linearGradient id="paint0_linear_50_877" x1="212.5" y1="0" x2="212.5" y2="856" gradientUnits="userSpaceOnUse">
<stop stop-color="white" stop-opacity="0.6"/>
<stop offset="1" stop-color="white" stop-opacity="0.3"/>
</linearGradient>
</defs>
</svg>
