<svg width="425" height="856" viewBox="0 0 425 856" fill="none" xmlns="http://www.w3.org/2000/svg">
<g filter="url(#filter0_i_50_839)">
<rect x="3" width="419" height="856" rx="62" fill="#1A1A1A"/>
</g>
<rect x="3.5" y="0.5" width="418" height="855" rx="61.5" stroke="url(#paint0_linear_50_839)" stroke-opacity="0.5"/>
<rect x="7" y="4" width="411" height="848" rx="58" fill="black"/>
<g filter="url(#filter1_i_50_839)">
<path d="M0 137.6C0 137.04 0 136.76 0.108993 136.546C0.204867 136.358 0.357847 136.205 0.546009 136.109C0.759921 136 1.03995 136 1.6 136H3V166H1.6C1.03995 166 0.759921 166 0.546009 165.891C0.357847 165.795 0.204867 165.642 0.108993 165.454C0 165.24 0 164.96 0 164.4V137.6Z" fill="#333333"/>
</g>
<g filter="url(#filter2_i_50_839)">
<path d="M0 199.6C0 199.04 0 198.76 0.108993 198.546C0.204867 198.358 0.357847 198.205 0.546009 198.109C0.759921 198 1.03995 198 1.6 198H3V260H1.6C1.03995 260 0.759921 260 0.546009 259.891C0.357847 259.795 0.204867 259.642 0.108993 259.454C0 259.24 0 258.96 0 258.4V199.6Z" fill="#333333"/>
</g>
<g filter="url(#filter3_i_50_839)">
<path d="M0 279.6C0 279.04 0 278.76 0.108993 278.546C0.204867 278.358 0.357847 278.205 0.546009 278.109C0.759921 278 1.03995 278 1.6 278H3V340H1.6C1.03995 340 0.759921 340 0.546009 339.891C0.357847 339.795 0.204867 339.642 0.108993 339.454C0 339.24 0 338.96 0 338.4V279.6Z" fill="#333333"/>
</g>
<g filter="url(#filter4_i_50_839)">
<path d="M422 220H423.4C423.96 220 424.24 220 424.454 220.109C424.642 220.205 424.795 220.358 424.891 220.546C425 220.76 425 221.04 425 221.6V318.4C425 318.96 425 319.24 424.891 319.454C424.795 319.642 424.642 319.795 424.454 319.891C424.24 320 423.96 320 423.4 320H422V220Z" fill="#333333"/>
</g>
<rect x="25" y="22" width="375" height="812" rx="40" fill="white"/>
<rect x="368" y="112" width="32" height="534" rx="8" fill="#D9D9D9"/>
<rect x="24" y="113" width="32" height="534" rx="8" fill="#D9D9D9"/>
<rect x="84" y="734" width="39" height="39" rx="8" fill="#D9D9D9"/>
<rect x="159" y="734" width="39" height="39" rx="8" fill="#D9D9D9"/>
<rect x="234" y="734" width="39" height="39" rx="8" fill="#D9D9D9"/>
<rect x="309" y="734" width="39" height="39" rx="8" fill="#D9D9D9"/>
<rect x="77" y="113" width="271" height="534" rx="8" fill="#D9D9D9"/>
<path d="M225.523 794L222.341 782.364H223.773L226.205 791.841H226.318L228.795 782.364H230.386L232.864 791.841H232.977L235.409 782.364H236.841L233.659 794H232.205L229.636 784.727H229.545L226.977 794H225.523ZM238.415 794V785.273H239.756V794H238.415ZM239.097 783.818C238.835 783.818 238.61 783.729 238.42 783.551C238.235 783.373 238.142 783.159 238.142 782.909C238.142 782.659 238.235 782.445 238.42 782.267C238.61 782.089 238.835 782 239.097 782C239.358 782 239.581 782.089 239.767 782.267C239.956 782.445 240.051 782.659 240.051 782.909C240.051 783.159 239.956 783.373 239.767 783.551C239.581 783.729 239.358 783.818 239.097 783.818ZM245.507 794.182C244.78 794.182 244.138 793.998 243.581 793.631C243.024 793.259 242.589 792.737 242.274 792.062C241.96 791.384 241.803 790.583 241.803 789.659C241.803 788.742 241.96 787.947 242.274 787.273C242.589 786.598 243.026 786.078 243.587 785.71C244.147 785.343 244.795 785.159 245.53 785.159C246.098 785.159 246.547 785.254 246.876 785.443C247.21 785.629 247.464 785.841 247.638 786.08C247.816 786.314 247.954 786.508 248.053 786.659H248.166V782.364H249.507V794H248.212V792.659H248.053C247.954 792.818 247.814 793.019 247.632 793.261C247.45 793.5 247.191 793.714 246.854 793.903C246.517 794.089 246.068 794.182 245.507 794.182ZM245.689 792.977C246.227 792.977 246.681 792.837 247.053 792.557C247.424 792.273 247.706 791.881 247.899 791.381C248.092 790.877 248.189 790.295 248.189 789.636C248.189 788.985 248.094 788.415 247.905 787.926C247.715 787.434 247.435 787.051 247.064 786.778C246.693 786.502 246.234 786.364 245.689 786.364C245.121 786.364 244.647 786.509 244.268 786.801C243.893 787.089 243.611 787.481 243.422 787.977C243.236 788.47 243.143 789.023 243.143 789.636C243.143 790.258 243.238 790.822 243.428 791.33C243.621 791.833 243.905 792.235 244.28 792.534C244.659 792.83 245.128 792.977 245.689 792.977ZM255.672 797.455C255.024 797.455 254.467 797.371 254.001 797.205C253.536 797.042 253.147 796.826 252.837 796.557C252.53 796.292 252.286 796.008 252.104 795.705L253.172 794.955C253.293 795.114 253.446 795.295 253.632 795.5C253.818 795.708 254.071 795.888 254.393 796.04C254.719 796.195 255.145 796.273 255.672 796.273C256.376 796.273 256.958 796.102 257.416 795.761C257.875 795.42 258.104 794.886 258.104 794.159V792.386H257.99C257.892 792.545 257.751 792.742 257.57 792.977C257.392 793.208 257.134 793.415 256.797 793.597C256.464 793.775 256.013 793.864 255.445 793.864C254.74 793.864 254.107 793.697 253.547 793.364C252.99 793.03 252.549 792.545 252.223 791.909C251.901 791.273 251.74 790.5 251.74 789.591C251.74 788.697 251.897 787.919 252.212 787.256C252.526 786.589 252.964 786.074 253.524 785.71C254.085 785.343 254.732 785.159 255.467 785.159C256.036 785.159 256.486 785.254 256.82 785.443C257.157 785.629 257.414 785.841 257.592 786.08C257.774 786.314 257.914 786.508 258.013 786.659H258.149V785.273H259.445V794.25C259.445 795 259.274 795.61 258.933 796.08C258.596 796.553 258.142 796.9 257.57 797.119C257.001 797.343 256.369 797.455 255.672 797.455ZM255.626 792.659C256.164 792.659 256.619 792.536 256.99 792.29C257.361 792.044 257.643 791.689 257.837 791.227C258.03 790.765 258.126 790.212 258.126 789.568C258.126 788.939 258.032 788.384 257.842 787.903C257.653 787.422 257.373 787.045 257.001 786.773C256.63 786.5 256.172 786.364 255.626 786.364C255.058 786.364 254.585 786.508 254.206 786.795C253.831 787.083 253.549 787.47 253.359 787.955C253.174 788.439 253.081 788.977 253.081 789.568C253.081 790.174 253.176 790.71 253.365 791.176C253.558 791.638 253.842 792.002 254.217 792.267C254.596 792.528 255.066 792.659 255.626 792.659ZM265.558 794.182C264.717 794.182 263.992 793.996 263.382 793.625C262.776 793.25 262.308 792.727 261.979 792.057C261.653 791.383 261.49 790.598 261.49 789.705C261.49 788.811 261.653 788.023 261.979 787.341C262.308 786.655 262.767 786.121 263.354 785.739C263.945 785.352 264.634 785.159 265.422 785.159C265.876 785.159 266.325 785.235 266.768 785.386C267.212 785.538 267.615 785.784 267.979 786.125C268.342 786.462 268.632 786.909 268.848 787.466C269.064 788.023 269.172 788.708 269.172 789.523V790.091H262.445V788.932H267.808C267.808 788.439 267.71 788 267.513 787.614C267.32 787.227 267.043 786.922 266.683 786.699C266.327 786.475 265.907 786.364 265.422 786.364C264.888 786.364 264.426 786.496 264.036 786.761C263.649 787.023 263.352 787.364 263.143 787.784C262.935 788.205 262.831 788.655 262.831 789.136V789.909C262.831 790.568 262.945 791.127 263.172 791.585C263.403 792.04 263.723 792.386 264.132 792.625C264.541 792.86 265.017 792.977 265.558 792.977C265.911 792.977 266.229 792.928 266.513 792.83C266.801 792.727 267.049 792.576 267.257 792.375C267.465 792.17 267.626 791.917 267.74 791.614L269.036 791.977C268.899 792.417 268.67 792.803 268.348 793.136C268.026 793.466 267.628 793.723 267.155 793.909C266.681 794.091 266.149 794.182 265.558 794.182ZM275.007 785.273V786.409H270.484V785.273H275.007ZM271.803 783.182H273.143V791.5C273.143 791.879 273.198 792.163 273.308 792.352C273.422 792.538 273.566 792.663 273.74 792.727C273.918 792.788 274.106 792.818 274.303 792.818C274.45 792.818 274.571 792.811 274.666 792.795C274.761 792.777 274.837 792.761 274.893 792.75L275.166 793.955C275.075 793.989 274.948 794.023 274.786 794.057C274.623 794.095 274.416 794.114 274.166 794.114C273.787 794.114 273.416 794.032 273.053 793.869C272.693 793.706 272.393 793.458 272.155 793.125C271.92 792.792 271.803 792.371 271.803 791.864V783.182ZM283.05 787.227L281.845 787.568C281.769 787.367 281.658 787.172 281.51 786.983C281.366 786.79 281.169 786.631 280.919 786.506C280.669 786.381 280.349 786.318 279.959 786.318C279.425 786.318 278.98 786.441 278.624 786.688C278.271 786.93 278.095 787.239 278.095 787.614C278.095 787.947 278.216 788.21 278.459 788.403C278.701 788.597 279.08 788.758 279.595 788.886L280.891 789.205C281.671 789.394 282.252 789.684 282.635 790.074C283.018 790.46 283.209 790.958 283.209 791.568C283.209 792.068 283.065 792.515 282.777 792.909C282.493 793.303 282.095 793.614 281.584 793.841C281.072 794.068 280.478 794.182 279.8 794.182C278.91 794.182 278.173 793.989 277.589 793.602C277.006 793.216 276.637 792.652 276.482 791.909L277.754 791.591C277.875 792.061 278.105 792.413 278.442 792.648C278.783 792.883 279.228 793 279.777 793C280.402 793 280.898 792.867 281.266 792.602C281.637 792.333 281.822 792.011 281.822 791.636C281.822 791.333 281.716 791.08 281.504 790.875C281.292 790.667 280.966 790.511 280.527 790.409L279.072 790.068C278.273 789.879 277.686 789.585 277.311 789.188C276.94 788.786 276.754 788.284 276.754 787.682C276.754 787.189 276.893 786.754 277.169 786.375C277.449 785.996 277.83 785.699 278.311 785.483C278.796 785.267 279.345 785.159 279.959 785.159C280.822 785.159 281.5 785.348 281.993 785.727C282.489 786.106 282.841 786.606 283.05 787.227Z" fill="black"/>
<circle cx="253" cy="763" r="49.5" stroke="#FF0000"/>
<defs>
<filter id="filter0_i_50_839" x="3" y="0" width="419" height="856" filterUnits="userSpaceOnUse" color-interpolation-filters="sRGB">
<feFlood flood-opacity="0" result="BackgroundImageFix"/>
<feBlend mode="normal" in="SourceGraphic" in2="BackgroundImageFix" result="shape"/>
<feColorMatrix in="SourceAlpha" type="matrix" values="0 0 0 0 0 0 0 0 0 0 0 0 0 0 0 0 0 0 127 0" result="hardAlpha"/>
<feOffset/>
<feGaussianBlur stdDeviation="4"/>
<feComposite in2="hardAlpha" operator="arithmetic" k2="-1" k3="1"/>
<feColorMatrix type="matrix" values="0 0 0 0 1 0 0 0 0 1 0 0 0 0 1 0 0 0 0.9 0"/>
<feBlend mode="normal" in2="shape" result="effect1_innerShadow_50_839"/>
</filter>
<filter id="filter1_i_50_839" x="0" y="136" width="4" height="30" filterUnits="userSpaceOnUse" color-interpolation-filters="sRGB">
<feFlood flood-opacity="0" result="BackgroundImageFix"/>
<feBlend mode="normal" in="SourceGraphic" in2="BackgroundImageFix" result="shape"/>
<feColorMatrix in="SourceAlpha" type="matrix" values="0 0 0 0 0 0 0 0 0 0 0 0 0 0 0 0 0 0 127 0" result="hardAlpha"/>
<feOffset dx="1"/>
<feGaussianBlur stdDeviation="1"/>
<feComposite in2="hardAlpha" operator="arithmetic" k2="-1" k3="1"/>
<feColorMatrix type="matrix" values="0 0 0 0 1 0 0 0 0 1 0 0 0 0 1 0 0 0 0.5 0"/>
<feBlend mode="normal" in2="shape" result="effect1_innerShadow_50_839"/>
</filter>
<filter id="filter2_i_50_839" x="0" y="198" width="4" height="62" filterUnits="userSpaceOnUse" color-interpolation-filters="sRGB">
<feFlood flood-opacity="0" result="BackgroundImageFix"/>
<feBlend mode="normal" in="SourceGraphic" in2="BackgroundImageFix" result="shape"/>
<feColorMatrix in="SourceAlpha" type="matrix" values="0 0 0 0 0 0 0 0 0 0 0 0 0 0 0 0 0 0 127 0" result="hardAlpha"/>
<feOffset dx="1"/>
<feGaussianBlur stdDeviation="1"/>
<feComposite in2="hardAlpha" operator="arithmetic" k2="-1" k3="1"/>
<feColorMatrix type="matrix" values="0 0 0 0 1 0 0 0 0 1 0 0 0 0 1 0 0 0 0.5 0"/>
<feBlend mode="normal" in2="shape" result="effect1_innerShadow_50_839"/>
</filter>
<filter id="filter3_i_50_839" x="0" y="278" width="4" height="62" filterUnits="userSpaceOnUse" color-interpolation-filters="sRGB">
<feFlood flood-opacity="0" result="BackgroundImageFix"/>
<feBlend mode="normal" in="SourceGraphic" in2="BackgroundImageFix" result="shape"/>
<feColorMatrix in="SourceAlpha" type="matrix" values="0 0 0 0 0 0 0 0 0 0 0 0 0 0 0 0 0 0 127 0" result="hardAlpha"/>
<feOffset dx="1"/>
<feGaussianBlur stdDeviation="1"/>
<feComposite in2="hardAlpha" operator="arithmetic" k2="-1" k3="1"/>
<feColorMatrix type="matrix" values="0 0 0 0 1 0 0 0 0 1 0 0 0 0 1 0 0 0 0.5 0"/>
<feBlend mode="normal" in2="shape" result="effect1_innerShadow_50_839"/>
</filter>
<filter id="filter4_i_50_839" x="421" y="220" width="4" height="100" filterUnits="userSpaceOnUse" color-interpolation-filters="sRGB">
<feFlood flood-opacity="0" result="BackgroundImageFix"/>
<feBlend mode="normal" in="SourceGraphic" in2="BackgroundImageFix" result="shape"/>
<feColorMatrix in="SourceAlpha" type="matrix" values="0 0 0 0 0 0 0 0 0 0 0 0 0 0 0 0 0 0 127 0" result="hardAlpha"/>
<feOffset dx="-1"/>
<feGaussianBlur stdDeviation="1"/>
<feComposite in2="hardAlpha" operator="arithmetic" k2="-1" k3="1"/>
<feColorMatrix type="matrix" values="0 0 0 0 1 0 0 0 0 1 0 0 0 0 1 0 0 0 0.5 0"/>
<feBlend mode="normal" in2="shape" result="effect1_innerShadow_50_839"/>
</filter>
<linearGradient id="paint0_linear_50_839" x1="212.5" y1="0" x2="212.5" y2="856" gradientUnits="userSpaceOnUse">
<stop stop-color="white" stop-opacity="0.6"/>
<stop offset="1" stop-color="white" stop-opacity="0.3"/>
</linearGradient>
</defs>
</svg>
