<svg width="425" height="856" viewBox="0 0 425 856" fill="none" xmlns="http://www.w3.org/2000/svg">
<g filter="url(#filter0_i_50_864)">
<rect x="3" width="419" height="856" rx="62" fill="#1A1A1A"/>
</g>
<rect x="3.5" y="0.5" width="418" height="855" rx="61.5" stroke="url(#paint0_linear_50_864)" stroke-opacity="0.5"/>
<rect x="7" y="4" width="411" height="848" rx="58" fill="black"/>
<g filter="url(#filter1_i_50_864)">
<path d="M0 137.6C0 137.04 0 136.76 0.108993 136.546C0.204867 136.358 0.357847 136.205 0.546009 136.109C0.759921 136 1.03995 136 1.6 136H3V166H1.6C1.03995 166 0.759921 166 0.546009 165.891C0.357847 165.795 0.204867 165.642 0.108993 165.454C0 165.24 0 164.96 0 164.4V137.6Z" fill="#333333"/>
</g>
<g filter="url(#filter2_i_50_864)">
<path d="M0 199.6C0 199.04 0 198.76 0.108993 198.546C0.204867 198.358 0.357847 198.205 0.546009 198.109C0.759921 198 1.03995 198 1.6 198H3V260H1.6C1.03995 260 0.759921 260 0.546009 259.891C0.357847 259.795 0.204867 259.642 0.108993 259.454C0 259.24 0 258.96 0 258.4V199.6Z" fill="#333333"/>
</g>
<g filter="url(#filter3_i_50_864)">
<path d="M0 279.6C0 279.04 0 278.76 0.108993 278.546C0.204867 278.358 0.357847 278.205 0.546009 278.109C0.759921 278 1.03995 278 1.6 278H3V340H1.6C1.03995 340 0.759921 340 0.546009 339.891C0.357847 339.795 0.204867 339.642 0.108993 339.454C0 339.24 0 338.96 0 338.4V279.6Z" fill="#333333"/>
</g>
<g filter="url(#filter4_i_50_864)">
<path d="M422 220H423.4C423.96 220 424.24 220 424.454 220.109C424.642 220.205 424.795 220.358 424.891 220.546C425 220.76 425 221.04 425 221.6V318.4C425 318.96 425 319.24 424.891 319.454C424.795 319.642 424.642 319.795 424.454 319.891C424.24 320 423.96 320 423.4 320H422V220Z" fill="#333333"/>
</g>
<rect x="25" y="22" width="375" height="812" rx="40" fill="white"/>
<rect x="25" y="116" width="375" height="718" rx="30" fill="#D9D9D9"/>
<rect x="46" y="40" width="333" height="50" rx="16" fill="#767676"/>
<path d="M156.773 61.0909C156.687 60.3712 156.342 59.8125 155.736 59.4148C155.13 59.017 154.386 58.8182 153.506 58.8182C152.862 58.8182 152.298 58.9223 151.815 59.1307C151.337 59.339 150.963 59.6255 150.693 59.9901C150.428 60.3546 150.295 60.7689 150.295 61.233C150.295 61.6212 150.388 61.955 150.572 62.2344C150.762 62.509 151.003 62.7386 151.297 62.9233C151.59 63.1032 151.898 63.2524 152.22 63.3707C152.542 63.4844 152.838 63.5767 153.108 63.6477L154.585 64.0455C154.964 64.1449 155.385 64.2822 155.849 64.4574C156.318 64.6326 156.765 64.8717 157.192 65.1747C157.622 65.473 157.978 65.8565 158.257 66.3253C158.536 66.794 158.676 67.3693 158.676 68.0511C158.676 68.8371 158.47 69.5473 158.058 70.1818C157.651 70.8163 157.054 71.3205 156.268 71.6946C155.487 72.0687 154.538 72.2557 153.42 72.2557C152.379 72.2557 151.477 72.0876 150.714 71.7514C149.957 71.4152 149.36 70.9465 148.925 70.3452C148.494 69.7438 148.25 69.0455 148.193 68.25H150.011C150.059 68.7992 150.243 69.2538 150.565 69.6136C150.892 69.9687 151.304 70.2339 151.801 70.4091C152.303 70.5795 152.843 70.6648 153.42 70.6648C154.093 70.6648 154.696 70.5559 155.231 70.3381C155.766 70.1155 156.19 69.8078 156.503 69.4148C156.815 69.017 156.971 68.553 156.971 68.0227C156.971 67.5398 156.836 67.1468 156.567 66.8438C156.297 66.5407 155.942 66.2945 155.501 66.1051C155.061 65.9157 154.585 65.75 154.074 65.608L152.284 65.0966C151.148 64.7699 150.248 64.3035 149.585 63.6974C148.922 63.0914 148.591 62.2983 148.591 61.3182C148.591 60.5038 148.811 59.7936 149.251 59.1875C149.696 58.5767 150.293 58.1032 151.041 57.767C151.794 57.4261 152.634 57.2557 153.562 57.2557C154.5 57.2557 155.333 57.4238 156.062 57.7599C156.791 58.0914 157.369 58.5459 157.795 59.1236C158.226 59.7012 158.453 60.357 158.477 61.0909H156.773ZM165.919 72.2273C164.867 72.2273 163.961 71.9953 163.198 71.5312C162.441 71.0625 161.856 70.4091 161.444 69.571C161.037 68.7282 160.833 67.7481 160.833 66.6307C160.833 65.5133 161.037 64.5284 161.444 63.6761C161.856 62.8191 162.429 62.1515 163.163 61.6733C163.901 61.1903 164.763 60.9489 165.748 60.9489C166.316 60.9489 166.877 61.0436 167.431 61.233C167.985 61.4223 168.49 61.7301 168.944 62.1562C169.399 62.5777 169.761 63.1364 170.031 63.8324C170.301 64.5284 170.436 65.3854 170.436 66.4034V67.1136H162.026V65.6648H168.731C168.731 65.0492 168.608 64.5 168.362 64.017C168.12 63.5341 167.775 63.1529 167.325 62.8736C166.88 62.5942 166.354 62.4545 165.748 62.4545C165.08 62.4545 164.503 62.6203 164.015 62.9517C163.532 63.2784 163.16 63.7045 162.9 64.2301C162.64 64.7557 162.509 65.3191 162.509 65.9205V66.8864C162.509 67.7102 162.651 68.4086 162.936 68.9815C163.224 69.5497 163.624 69.983 164.136 70.2812C164.647 70.5748 165.241 70.7216 165.919 70.7216C166.359 70.7216 166.757 70.66 167.112 70.5369C167.472 70.4091 167.782 70.2197 168.042 69.9688C168.302 69.7131 168.504 69.3958 168.646 69.017L170.265 69.4716C170.095 70.0208 169.808 70.5038 169.406 70.9205C169.003 71.3324 168.506 71.6544 167.914 71.8864C167.322 72.1136 166.657 72.2273 165.919 72.2273ZM176.195 72.2557C175.504 72.2557 174.877 72.1255 174.313 71.8651C173.75 71.5999 173.302 71.2188 172.971 70.7216C172.64 70.2197 172.474 69.6136 172.474 68.9034C172.474 68.2784 172.597 67.7718 172.843 67.3835C173.089 66.9905 173.419 66.6828 173.83 66.4602C174.242 66.2377 174.697 66.072 175.194 65.9631C175.696 65.8494 176.2 65.7595 176.707 65.6932C177.37 65.608 177.907 65.544 178.319 65.5014C178.736 65.4541 179.039 65.3759 179.228 65.267C179.422 65.1581 179.519 64.9687 179.519 64.6989V64.642C179.519 63.9413 179.328 63.3968 178.944 63.0085C178.565 62.6203 177.99 62.4261 177.218 62.4261C176.418 62.4261 175.791 62.6013 175.336 62.9517C174.882 63.3021 174.562 63.6761 174.377 64.0739L172.786 63.5057C173.07 62.8428 173.449 62.3267 173.923 61.9574C174.401 61.5833 174.922 61.3229 175.485 61.1761C176.053 61.0246 176.612 60.9489 177.161 60.9489C177.512 60.9489 177.914 60.9915 178.369 61.0767C178.828 61.1572 179.271 61.3253 179.697 61.581C180.128 61.8366 180.485 62.2225 180.769 62.7386C181.053 63.2547 181.195 63.946 181.195 64.8125V72H179.519V70.5227H179.434C179.32 70.7595 179.131 71.0128 178.866 71.2827C178.601 71.5526 178.248 71.7822 177.808 71.9716C177.367 72.161 176.83 72.2557 176.195 72.2557ZM176.451 70.75C177.114 70.75 177.673 70.6198 178.127 70.3594C178.587 70.099 178.932 69.7628 179.164 69.3509C179.401 68.9389 179.519 68.5057 179.519 68.0511V66.517C179.448 66.6023 179.292 66.6804 179.051 66.7514C178.814 66.8177 178.539 66.8769 178.227 66.929C177.919 66.9763 177.618 67.0189 177.325 67.0568C177.036 67.09 176.802 67.1184 176.622 67.142C176.186 67.1989 175.779 67.2912 175.4 67.419C175.026 67.5421 174.723 67.7292 174.491 67.9801C174.264 68.2263 174.15 68.5625 174.15 68.9886C174.15 69.571 174.365 70.0114 174.796 70.3097C175.232 70.6032 175.784 70.75 176.451 70.75ZM184.255 72V61.0909H185.874V62.7386H185.988C186.187 62.1989 186.546 61.7609 187.067 61.4247C187.588 61.0885 188.175 60.9205 188.829 60.9205C188.952 60.9205 189.106 60.9228 189.29 60.9276C189.475 60.9323 189.615 60.9394 189.709 60.9489V62.6534C189.653 62.6392 189.522 62.6179 189.319 62.5895C189.12 62.5563 188.909 62.5398 188.687 62.5398C188.156 62.5398 187.683 62.651 187.266 62.8736C186.854 63.0914 186.528 63.3944 186.286 63.7827C186.049 64.1662 185.931 64.6042 185.931 65.0966V72H184.255ZM195.796 72.2273C194.773 72.2273 193.893 71.9858 193.154 71.5028C192.415 71.0199 191.847 70.3546 191.449 69.5071C191.052 68.6596 190.853 67.6913 190.853 66.6023C190.853 65.4943 191.056 64.5166 191.464 63.669C191.876 62.8168 192.448 62.1515 193.182 61.6733C193.921 61.1903 194.783 60.9489 195.768 60.9489C196.535 60.9489 197.226 61.0909 197.841 61.375C198.457 61.6591 198.961 62.0568 199.354 62.5682C199.747 63.0795 199.991 63.6761 200.086 64.358H198.41C198.282 63.8608 197.998 63.4205 197.557 63.0369C197.122 62.6487 196.535 62.4545 195.796 62.4545C195.143 62.4545 194.57 62.625 194.077 62.9659C193.59 63.3021 193.208 63.7779 192.934 64.3935C192.664 65.0043 192.529 65.7216 192.529 66.5455C192.529 67.3883 192.662 68.1222 192.927 68.7472C193.197 69.3722 193.575 69.8575 194.063 70.2031C194.555 70.5488 195.133 70.7216 195.796 70.7216C196.232 70.7216 196.627 70.6458 196.982 70.4943C197.337 70.3428 197.638 70.125 197.884 69.8409C198.13 69.5568 198.305 69.2159 198.41 68.8182H200.086C199.991 69.4621 199.757 70.0421 199.383 70.5582C199.013 71.0696 198.523 71.4768 197.912 71.7798C197.306 72.0781 196.601 72.2273 195.796 72.2273ZM204.212 65.4375V72H202.536V57.4545H204.212V62.7955H204.354C204.61 62.232 204.993 61.7846 205.505 61.4531C206.021 61.117 206.707 60.9489 207.564 60.9489C208.308 60.9489 208.959 61.098 209.518 61.3963C210.076 61.6899 210.51 62.142 210.817 62.7528C211.13 63.3589 211.286 64.1307 211.286 65.0682V72H209.61V65.1818C209.61 64.3153 209.385 63.6454 208.935 63.1719C208.49 62.6937 207.872 62.4545 207.081 62.4545C206.532 62.4545 206.04 62.5705 205.604 62.8026C205.173 63.0346 204.832 63.3731 204.581 63.8182C204.335 64.2633 204.212 64.803 204.212 65.4375ZM222.847 72L218.869 57.4545H220.659L223.699 69.3011H223.841L226.938 57.4545H228.926L232.023 69.3011H232.165L235.205 57.4545H236.994L233.017 72H231.199L227.989 60.4091H227.875L224.665 72H222.847ZM238.962 72V61.0909H240.638V72H238.962ZM239.814 59.2727C239.487 59.2727 239.206 59.1615 238.969 58.9389C238.737 58.7164 238.621 58.4489 238.621 58.1364C238.621 57.8239 238.737 57.5563 238.969 57.3338C239.206 57.1113 239.487 57 239.814 57C240.141 57 240.42 57.1113 240.652 57.3338C240.889 57.5563 241.007 57.8239 241.007 58.1364C241.007 58.4489 240.889 58.7164 240.652 58.9389C240.42 59.1615 240.141 59.2727 239.814 59.2727ZM247.827 72.2273C246.918 72.2273 246.116 71.9976 245.42 71.5384C244.724 71.0743 244.179 70.4209 243.786 69.5781C243.393 68.7306 243.197 67.7292 243.197 66.5739C243.197 65.428 243.393 64.4337 243.786 63.5909C244.179 62.7481 244.726 62.0971 245.427 61.6378C246.127 61.1785 246.937 60.9489 247.856 60.9489C248.566 60.9489 249.127 61.0672 249.539 61.304C249.956 61.536 250.273 61.8011 250.491 62.0994C250.713 62.393 250.886 62.6345 251.009 62.8239H251.151V57.4545H252.827V72H251.208V70.3239H251.009C250.886 70.5227 250.711 70.7737 250.483 71.0767C250.256 71.375 249.932 71.6425 249.51 71.8793C249.089 72.1113 248.528 72.2273 247.827 72.2273ZM248.055 70.7216C248.727 70.7216 249.295 70.5464 249.759 70.196C250.223 69.8409 250.576 69.3509 250.817 68.7259C251.059 68.0961 251.18 67.3693 251.18 66.5455C251.18 65.7311 251.061 65.0185 250.824 64.4077C250.588 63.7921 250.237 63.3139 249.773 62.973C249.309 62.6274 248.736 62.4545 248.055 62.4545C247.344 62.4545 246.752 62.6368 246.279 63.0014C245.81 63.3613 245.457 63.8513 245.221 64.4716C244.989 65.0871 244.873 65.7784 244.873 66.5455C244.873 67.322 244.991 68.0275 245.228 68.6619C245.469 69.2917 245.824 69.7936 246.293 70.1676C246.767 70.5369 247.354 70.7216 248.055 70.7216ZM260.533 76.3182C259.724 76.3182 259.028 76.214 258.445 76.0057C257.863 75.8021 257.377 75.5322 256.989 75.196C256.606 74.8646 256.3 74.5095 256.073 74.1307L257.408 73.1932C257.56 73.392 257.751 73.6193 257.983 73.875C258.215 74.1354 258.533 74.3603 258.935 74.5497C259.342 74.7438 259.875 74.8409 260.533 74.8409C261.414 74.8409 262.141 74.6278 262.714 74.2017C263.287 73.7756 263.573 73.108 263.573 72.1989V69.983H263.431C263.308 70.1818 263.133 70.428 262.905 70.7216C262.683 71.0104 262.361 71.2685 261.939 71.4957C261.523 71.7183 260.959 71.8295 260.249 71.8295C259.368 71.8295 258.578 71.6212 257.877 71.2045C257.181 70.7879 256.629 70.1818 256.222 69.3864C255.82 68.5909 255.618 67.625 255.618 66.4886C255.618 65.3712 255.815 64.3982 256.208 63.5696C256.601 62.7363 257.148 62.0923 257.849 61.6378C258.549 61.1785 259.359 60.9489 260.278 60.9489C260.988 60.9489 261.551 61.0672 261.968 61.304C262.389 61.536 262.711 61.8011 262.934 62.0994C263.161 62.393 263.336 62.6345 263.459 62.8239H263.63V61.0909H265.249V72.3125C265.249 73.25 265.036 74.0123 264.61 74.5994C264.189 75.1913 263.62 75.6245 262.905 75.8991C262.195 76.1785 261.404 76.3182 260.533 76.3182ZM260.476 70.3239C261.149 70.3239 261.717 70.17 262.181 69.8622C262.645 69.5545 262.998 69.1117 263.239 68.5341C263.481 67.9564 263.601 67.2652 263.601 66.4602C263.601 65.6742 263.483 64.9806 263.246 64.3793C263.01 63.7779 262.659 63.3068 262.195 62.9659C261.731 62.625 261.158 62.4545 260.476 62.4545C259.766 62.4545 259.174 62.6345 258.701 62.9943C258.232 63.3542 257.879 63.8371 257.643 64.4432C257.411 65.0492 257.295 65.7216 257.295 66.4602C257.295 67.2178 257.413 67.8878 257.65 68.4702C257.891 69.0478 258.246 69.5024 258.715 69.8338C259.189 70.1605 259.776 70.3239 260.476 70.3239ZM272.891 72.2273C271.84 72.2273 270.933 71.9953 270.171 71.5312C269.413 71.0625 268.829 70.4091 268.417 69.571C268.01 68.7282 267.806 67.7481 267.806 66.6307C267.806 65.5133 268.01 64.5284 268.417 63.6761C268.829 62.8191 269.402 62.1515 270.135 61.6733C270.874 61.1903 271.736 60.9489 272.721 60.9489C273.289 60.9489 273.85 61.0436 274.404 61.233C274.958 61.4223 275.462 61.7301 275.917 62.1562C276.371 62.5777 276.733 63.1364 277.003 63.8324C277.273 64.5284 277.408 65.3854 277.408 66.4034V67.1136H268.999V65.6648H275.704C275.704 65.0492 275.581 64.5 275.334 64.017C275.093 63.5341 274.747 63.1529 274.297 62.8736C273.852 62.5942 273.327 62.4545 272.721 62.4545C272.053 62.4545 271.475 62.6203 270.988 62.9517C270.505 63.2784 270.133 63.7045 269.873 64.2301C269.612 64.7557 269.482 65.3191 269.482 65.9205V66.8864C269.482 67.7102 269.624 68.4086 269.908 68.9815C270.197 69.5497 270.597 69.983 271.108 70.2812C271.62 70.5748 272.214 70.7216 272.891 70.7216C273.331 70.7216 273.729 70.66 274.084 70.5369C274.444 70.4091 274.754 70.2197 275.015 69.9688C275.275 69.7131 275.476 69.3958 275.618 69.017L277.238 69.4716C277.067 70.0208 276.781 70.5038 276.378 70.9205C275.976 71.3324 275.479 71.6544 274.887 71.8864C274.295 72.1136 273.63 72.2273 272.891 72.2273ZM284.702 61.0909V62.5114H279.049V61.0909H284.702ZM280.697 58.4773H282.373V68.875C282.373 69.3485 282.441 69.7036 282.579 69.9403C282.721 70.1723 282.901 70.3286 283.118 70.4091C283.341 70.4848 283.575 70.5227 283.822 70.5227C284.006 70.5227 284.158 70.5133 284.276 70.4943C284.394 70.4706 284.489 70.4517 284.56 70.4375L284.901 71.9432C284.787 71.9858 284.629 72.0284 284.425 72.071C284.222 72.1184 283.964 72.142 283.651 72.142C283.178 72.142 282.714 72.0402 282.259 71.8366C281.809 71.633 281.435 71.3229 281.137 70.9062C280.843 70.4896 280.697 69.964 280.697 69.3295V58.4773ZM294.756 63.5341L293.25 63.9602C293.155 63.7093 293.015 63.4654 292.831 63.2287C292.651 62.9872 292.405 62.7884 292.092 62.6321C291.78 62.4759 291.38 62.3977 290.892 62.3977C290.224 62.3977 289.668 62.5516 289.223 62.8594C288.782 63.1624 288.562 63.5483 288.562 64.017C288.562 64.4337 288.714 64.7628 289.017 65.0043C289.32 65.2457 289.793 65.447 290.437 65.608L292.057 66.0057C293.032 66.2424 293.759 66.6046 294.237 67.0923C294.715 67.5753 294.954 68.1979 294.954 68.9602C294.954 69.5852 294.774 70.1439 294.415 70.6364C294.059 71.1288 293.562 71.517 292.923 71.8011C292.284 72.0852 291.541 72.2273 290.693 72.2273C289.58 72.2273 288.659 71.9858 287.93 71.5028C287.201 71.0199 286.739 70.3144 286.545 69.3864L288.136 68.9886C288.288 69.5758 288.574 70.0161 288.996 70.3097C289.422 70.6032 289.978 70.75 290.665 70.75C291.446 70.75 292.066 70.5843 292.525 70.2528C292.989 69.9167 293.221 69.5142 293.221 69.0455C293.221 68.6667 293.089 68.3494 292.824 68.0938C292.559 67.8333 292.151 67.6392 291.602 67.5114L289.784 67.0852C288.785 66.8485 288.051 66.4815 287.582 65.9844C287.118 65.4825 286.886 64.8551 286.886 64.1023C286.886 63.4867 287.059 62.9422 287.405 62.4688C287.755 61.9953 288.231 61.6236 288.832 61.3537C289.438 61.0838 290.125 60.9489 290.892 60.9489C291.971 60.9489 292.819 61.1856 293.434 61.6591C294.055 62.1326 294.495 62.7576 294.756 63.5341Z" fill="white"/>
<path d="M138 75L136 73M127.5 74C128.748 74 129.983 73.7543 131.135 73.2769C132.288 72.7994 133.335 72.0997 134.218 71.2175C135.1 70.3354 135.799 69.2881 136.277 68.1355C136.754 66.9829 137 65.7476 137 64.5C137 63.2524 136.754 62.0171 136.277 60.8645C135.799 59.7119 135.1 58.6646 134.218 57.7825C133.335 56.9003 132.288 56.2006 131.135 55.7231C129.983 55.2457 128.748 55 127.5 55C124.98 55 122.564 56.0009 120.782 57.7825C119.001 59.5641 118 61.9804 118 64.5C118 67.0196 119.001 69.4359 120.782 71.2175C122.564 72.9991 124.98 74 127.5 74Z" stroke="white" stroke-width="1.5" stroke-linecap="round" stroke-linejoin="round"/>
<defs>
<filter id="filter0_i_50_864" x="3" y="0" width="419" height="856" filterUnits="userSpaceOnUse" color-interpolation-filters="sRGB">
<feFlood flood-opacity="0" result="BackgroundImageFix"/>
<feBlend mode="normal" in="SourceGraphic" in2="BackgroundImageFix" result="shape"/>
<feColorMatrix in="SourceAlpha" type="matrix" values="0 0 0 0 0 0 0 0 0 0 0 0 0 0 0 0 0 0 127 0" result="hardAlpha"/>
<feOffset/>
<feGaussianBlur stdDeviation="4"/>
<feComposite in2="hardAlpha" operator="arithmetic" k2="-1" k3="1"/>
<feColorMatrix type="matrix" values="0 0 0 0 1 0 0 0 0 1 0 0 0 0 1 0 0 0 0.9 0"/>
<feBlend mode="normal" in2="shape" result="effect1_innerShadow_50_864"/>
</filter>
<filter id="filter1_i_50_864" x="0" y="136" width="4" height="30" filterUnits="userSpaceOnUse" color-interpolation-filters="sRGB">
<feFlood flood-opacity="0" result="BackgroundImageFix"/>
<feBlend mode="normal" in="SourceGraphic" in2="BackgroundImageFix" result="shape"/>
<feColorMatrix in="SourceAlpha" type="matrix" values="0 0 0 0 0 0 0 0 0 0 0 0 0 0 0 0 0 0 127 0" result="hardAlpha"/>
<feOffset dx="1"/>
<feGaussianBlur stdDeviation="1"/>
<feComposite in2="hardAlpha" operator="arithmetic" k2="-1" k3="1"/>
<feColorMatrix type="matrix" values="0 0 0 0 1 0 0 0 0 1 0 0 0 0 1 0 0 0 0.5 0"/>
<feBlend mode="normal" in2="shape" result="effect1_innerShadow_50_864"/>
</filter>
<filter id="filter2_i_50_864" x="0" y="198" width="4" height="62" filterUnits="userSpaceOnUse" color-interpolation-filters="sRGB">
<feFlood flood-opacity="0" result="BackgroundImageFix"/>
<feBlend mode="normal" in="SourceGraphic" in2="BackgroundImageFix" result="shape"/>
<feColorMatrix in="SourceAlpha" type="matrix" values="0 0 0 0 0 0 0 0 0 0 0 0 0 0 0 0 0 0 127 0" result="hardAlpha"/>
<feOffset dx="1"/>
<feGaussianBlur stdDeviation="1"/>
<feComposite in2="hardAlpha" operator="arithmetic" k2="-1" k3="1"/>
<feColorMatrix type="matrix" values="0 0 0 0 1 0 0 0 0 1 0 0 0 0 1 0 0 0 0.5 0"/>
<feBlend mode="normal" in2="shape" result="effect1_innerShadow_50_864"/>
</filter>
<filter id="filter3_i_50_864" x="0" y="278" width="4" height="62" filterUnits="userSpaceOnUse" color-interpolation-filters="sRGB">
<feFlood flood-opacity="0" result="BackgroundImageFix"/>
<feBlend mode="normal" in="SourceGraphic" in2="BackgroundImageFix" result="shape"/>
<feColorMatrix in="SourceAlpha" type="matrix" values="0 0 0 0 0 0 0 0 0 0 0 0 0 0 0 0 0 0 127 0" result="hardAlpha"/>
<feOffset dx="1"/>
<feGaussianBlur stdDeviation="1"/>
<feComposite in2="hardAlpha" operator="arithmetic" k2="-1" k3="1"/>
<feColorMatrix type="matrix" values="0 0 0 0 1 0 0 0 0 1 0 0 0 0 1 0 0 0 0.5 0"/>
<feBlend mode="normal" in2="shape" result="effect1_innerShadow_50_864"/>
</filter>
<filter id="filter4_i_50_864" x="421" y="220" width="4" height="100" filterUnits="userSpaceOnUse" color-interpolation-filters="sRGB">
<feFlood flood-opacity="0" result="BackgroundImageFix"/>
<feBlend mode="normal" in="SourceGraphic" in2="BackgroundImageFix" result="shape"/>
<feColorMatrix in="SourceAlpha" type="matrix" values="0 0 0 0 0 0 0 0 0 0 0 0 0 0 0 0 0 0 127 0" result="hardAlpha"/>
<feOffset dx="-1"/>
<feGaussianBlur stdDeviation="1"/>
<feComposite in2="hardAlpha" operator="arithmetic" k2="-1" k3="1"/>
<feColorMatrix type="matrix" values="0 0 0 0 1 0 0 0 0 1 0 0 0 0 1 0 0 0 0.5 0"/>
<feBlend mode="normal" in2="shape" result="effect1_innerShadow_50_864"/>
</filter>
<linearGradient id="paint0_linear_50_864" x1="212.5" y1="0" x2="212.5" y2="856" gradientUnits="userSpaceOnUse">
<stop stop-color="white" stop-opacity="0.6"/>
<stop offset="1" stop-color="white" stop-opacity="0.3"/>
</linearGradient>
</defs>
</svg>
