<svg width="425" height="856" viewBox="0 0 425 856" fill="none" xmlns="http://www.w3.org/2000/svg">
<g filter="url(#filter0_i_40_849)">
<rect x="3" width="419" height="856" rx="62" fill="#1A1A1A"/>
</g>
<rect x="3.5" y="0.5" width="418" height="855" rx="61.5" stroke="url(#paint0_linear_40_849)" stroke-opacity="0.5"/>
<rect x="7" y="4" width="411" height="848" rx="58" fill="black"/>
<g filter="url(#filter1_i_40_849)">
<path d="M0 137.6C0 137.04 0 136.76 0.108993 136.546C0.204867 136.358 0.357847 136.205 0.546009 136.109C0.759921 136 1.03995 136 1.6 136H3V166H1.6C1.03995 166 0.759921 166 0.546009 165.891C0.357847 165.795 0.204867 165.642 0.108993 165.454C0 165.24 0 164.96 0 164.4V137.6Z" fill="#333333"/>
</g>
<g filter="url(#filter2_i_40_849)">
<path d="M0 199.6C0 199.04 0 198.76 0.108993 198.546C0.204867 198.358 0.357847 198.205 0.546009 198.109C0.759921 198 1.03995 198 1.6 198H3V260H1.6C1.03995 260 0.759921 260 0.546009 259.891C0.357847 259.795 0.204867 259.642 0.108993 259.454C0 259.24 0 258.96 0 258.4V199.6Z" fill="#333333"/>
</g>
<g filter="url(#filter3_i_40_849)">
<path d="M0 279.6C0 279.04 0 278.76 0.108993 278.546C0.204867 278.358 0.357847 278.205 0.546009 278.109C0.759921 278 1.03995 278 1.6 278H3V340H1.6C1.03995 340 0.759921 340 0.546009 339.891C0.357847 339.795 0.204867 339.642 0.108993 339.454C0 339.24 0 338.96 0 338.4V279.6Z" fill="#333333"/>
</g>
<g filter="url(#filter4_i_40_849)">
<path d="M422 220H423.4C423.96 220 424.24 220 424.454 220.109C424.642 220.205 424.795 220.358 424.891 220.546C425 220.76 425 221.04 425 221.6V318.4C425 318.96 425 319.24 424.891 319.454C424.795 319.642 424.642 319.795 424.454 319.891C424.24 320 423.96 320 423.4 320H422V220Z" fill="#333333"/>
</g>
<rect x="25" y="22" width="375" height="812" rx="40" fill="white"/>
<rect x="25" y="75" width="375" height="759" rx="30" fill="#D9D9D9"/>
<rect x="46" y="96" width="333" height="50" rx="16" fill="#767676"/>
<path d="M156.773 117.091C156.687 116.371 156.342 115.812 155.736 115.415C155.13 115.017 154.386 114.818 153.506 114.818C152.862 114.818 152.298 114.922 151.815 115.131C151.337 115.339 150.963 115.625 150.693 115.99C150.428 116.355 150.295 116.769 150.295 117.233C150.295 117.621 150.388 117.955 150.572 118.234C150.762 118.509 151.003 118.739 151.297 118.923C151.59 119.103 151.898 119.252 152.22 119.371C152.542 119.484 152.838 119.577 153.108 119.648L154.585 120.045C154.964 120.145 155.385 120.282 155.849 120.457C156.318 120.633 156.765 120.872 157.192 121.175C157.622 121.473 157.978 121.857 158.257 122.325C158.536 122.794 158.676 123.369 158.676 124.051C158.676 124.837 158.47 125.547 158.058 126.182C157.651 126.816 157.054 127.321 156.268 127.695C155.487 128.069 154.538 128.256 153.42 128.256C152.379 128.256 151.477 128.088 150.714 127.751C149.957 127.415 149.36 126.946 148.925 126.345C148.494 125.744 148.25 125.045 148.193 124.25H150.011C150.059 124.799 150.243 125.254 150.565 125.614C150.892 125.969 151.304 126.234 151.801 126.409C152.303 126.58 152.843 126.665 153.42 126.665C154.093 126.665 154.696 126.556 155.231 126.338C155.766 126.116 156.19 125.808 156.503 125.415C156.815 125.017 156.971 124.553 156.971 124.023C156.971 123.54 156.836 123.147 156.567 122.844C156.297 122.541 155.942 122.295 155.501 122.105C155.061 121.916 154.585 121.75 154.074 121.608L152.284 121.097C151.148 120.77 150.248 120.304 149.585 119.697C148.922 119.091 148.591 118.298 148.591 117.318C148.591 116.504 148.811 115.794 149.251 115.188C149.696 114.577 150.293 114.103 151.041 113.767C151.794 113.426 152.634 113.256 153.562 113.256C154.5 113.256 155.333 113.424 156.062 113.76C156.791 114.091 157.369 114.546 157.795 115.124C158.226 115.701 158.453 116.357 158.477 117.091H156.773ZM165.919 128.227C164.867 128.227 163.961 127.995 163.198 127.531C162.441 127.062 161.856 126.409 161.444 125.571C161.037 124.728 160.833 123.748 160.833 122.631C160.833 121.513 161.037 120.528 161.444 119.676C161.856 118.819 162.429 118.152 163.163 117.673C163.901 117.19 164.763 116.949 165.748 116.949C166.316 116.949 166.877 117.044 167.431 117.233C167.985 117.422 168.49 117.73 168.944 118.156C169.399 118.578 169.761 119.136 170.031 119.832C170.301 120.528 170.436 121.385 170.436 122.403V123.114H162.026V121.665H168.731C168.731 121.049 168.608 120.5 168.362 120.017C168.12 119.534 167.775 119.153 167.325 118.874C166.88 118.594 166.354 118.455 165.748 118.455C165.08 118.455 164.503 118.62 164.015 118.952C163.532 119.278 163.16 119.705 162.9 120.23C162.64 120.756 162.509 121.319 162.509 121.92V122.886C162.509 123.71 162.651 124.409 162.936 124.982C163.224 125.55 163.624 125.983 164.136 126.281C164.647 126.575 165.241 126.722 165.919 126.722C166.359 126.722 166.757 126.66 167.112 126.537C167.472 126.409 167.782 126.22 168.042 125.969C168.302 125.713 168.504 125.396 168.646 125.017L170.265 125.472C170.095 126.021 169.808 126.504 169.406 126.92C169.003 127.332 168.506 127.654 167.914 127.886C167.322 128.114 166.657 128.227 165.919 128.227ZM176.195 128.256C175.504 128.256 174.877 128.125 174.313 127.865C173.75 127.6 173.302 127.219 172.971 126.722C172.64 126.22 172.474 125.614 172.474 124.903C172.474 124.278 172.597 123.772 172.843 123.384C173.089 122.991 173.419 122.683 173.83 122.46C174.242 122.238 174.697 122.072 175.194 121.963C175.696 121.849 176.2 121.759 176.707 121.693C177.37 121.608 177.907 121.544 178.319 121.501C178.736 121.454 179.039 121.376 179.228 121.267C179.422 121.158 179.519 120.969 179.519 120.699V120.642C179.519 119.941 179.328 119.397 178.944 119.009C178.565 118.62 177.99 118.426 177.218 118.426C176.418 118.426 175.791 118.601 175.336 118.952C174.882 119.302 174.562 119.676 174.377 120.074L172.786 119.506C173.07 118.843 173.449 118.327 173.923 117.957C174.401 117.583 174.922 117.323 175.485 117.176C176.053 117.025 176.612 116.949 177.161 116.949C177.512 116.949 177.914 116.991 178.369 117.077C178.828 117.157 179.271 117.325 179.697 117.581C180.128 117.837 180.485 118.223 180.769 118.739C181.053 119.255 181.195 119.946 181.195 120.812V128H179.519V126.523H179.434C179.32 126.759 179.131 127.013 178.866 127.283C178.601 127.553 178.248 127.782 177.808 127.972C177.367 128.161 176.83 128.256 176.195 128.256ZM176.451 126.75C177.114 126.75 177.673 126.62 178.127 126.359C178.587 126.099 178.932 125.763 179.164 125.351C179.401 124.939 179.519 124.506 179.519 124.051V122.517C179.448 122.602 179.292 122.68 179.051 122.751C178.814 122.818 178.539 122.877 178.227 122.929C177.919 122.976 177.618 123.019 177.325 123.057C177.036 123.09 176.802 123.118 176.622 123.142C176.186 123.199 175.779 123.291 175.4 123.419C175.026 123.542 174.723 123.729 174.491 123.98C174.264 124.226 174.15 124.562 174.15 124.989C174.15 125.571 174.365 126.011 174.796 126.31C175.232 126.603 175.784 126.75 176.451 126.75ZM184.255 128V117.091H185.874V118.739H185.988C186.187 118.199 186.546 117.761 187.067 117.425C187.588 117.089 188.175 116.92 188.829 116.92C188.952 116.92 189.106 116.923 189.29 116.928C189.475 116.932 189.615 116.939 189.709 116.949V118.653C189.653 118.639 189.522 118.618 189.319 118.589C189.12 118.556 188.909 118.54 188.687 118.54C188.156 118.54 187.683 118.651 187.266 118.874C186.854 119.091 186.528 119.394 186.286 119.783C186.049 120.166 185.931 120.604 185.931 121.097V128H184.255ZM195.796 128.227C194.773 128.227 193.893 127.986 193.154 127.503C192.415 127.02 191.847 126.355 191.449 125.507C191.052 124.66 190.853 123.691 190.853 122.602C190.853 121.494 191.056 120.517 191.464 119.669C191.876 118.817 192.448 118.152 193.182 117.673C193.921 117.19 194.783 116.949 195.768 116.949C196.535 116.949 197.226 117.091 197.841 117.375C198.457 117.659 198.961 118.057 199.354 118.568C199.747 119.08 199.991 119.676 200.086 120.358H198.41C198.282 119.861 197.998 119.42 197.557 119.037C197.122 118.649 196.535 118.455 195.796 118.455C195.143 118.455 194.57 118.625 194.077 118.966C193.59 119.302 193.208 119.778 192.934 120.393C192.664 121.004 192.529 121.722 192.529 122.545C192.529 123.388 192.662 124.122 192.927 124.747C193.197 125.372 193.575 125.857 194.063 126.203C194.555 126.549 195.133 126.722 195.796 126.722C196.232 126.722 196.627 126.646 196.982 126.494C197.337 126.343 197.638 126.125 197.884 125.841C198.13 125.557 198.305 125.216 198.41 124.818H200.086C199.991 125.462 199.757 126.042 199.383 126.558C199.013 127.07 198.523 127.477 197.912 127.78C197.306 128.078 196.601 128.227 195.796 128.227ZM204.212 121.438V128H202.536V113.455H204.212V118.795H204.354C204.61 118.232 204.993 117.785 205.505 117.453C206.021 117.117 206.707 116.949 207.564 116.949C208.308 116.949 208.959 117.098 209.518 117.396C210.076 117.69 210.51 118.142 210.817 118.753C211.13 119.359 211.286 120.131 211.286 121.068V128H209.61V121.182C209.61 120.315 209.385 119.645 208.935 119.172C208.49 118.694 207.872 118.455 207.081 118.455C206.532 118.455 206.04 118.571 205.604 118.803C205.173 119.035 204.832 119.373 204.581 119.818C204.335 120.263 204.212 120.803 204.212 121.438ZM222.847 128L218.869 113.455H220.659L223.699 125.301H223.841L226.938 113.455H228.926L232.023 125.301H232.165L235.205 113.455H236.994L233.017 128H231.199L227.989 116.409H227.875L224.665 128H222.847ZM238.962 128V117.091H240.638V128H238.962ZM239.814 115.273C239.487 115.273 239.206 115.161 238.969 114.939C238.737 114.716 238.621 114.449 238.621 114.136C238.621 113.824 238.737 113.556 238.969 113.334C239.206 113.111 239.487 113 239.814 113C240.141 113 240.42 113.111 240.652 113.334C240.889 113.556 241.007 113.824 241.007 114.136C241.007 114.449 240.889 114.716 240.652 114.939C240.42 115.161 240.141 115.273 239.814 115.273ZM247.827 128.227C246.918 128.227 246.116 127.998 245.42 127.538C244.724 127.074 244.179 126.421 243.786 125.578C243.393 124.731 243.197 123.729 243.197 122.574C243.197 121.428 243.393 120.434 243.786 119.591C244.179 118.748 244.726 118.097 245.427 117.638C246.127 117.179 246.937 116.949 247.856 116.949C248.566 116.949 249.127 117.067 249.539 117.304C249.956 117.536 250.273 117.801 250.491 118.099C250.713 118.393 250.886 118.634 251.009 118.824H251.151V113.455H252.827V128H251.208V126.324H251.009C250.886 126.523 250.711 126.774 250.483 127.077C250.256 127.375 249.932 127.643 249.51 127.879C249.089 128.111 248.528 128.227 247.827 128.227ZM248.055 126.722C248.727 126.722 249.295 126.546 249.759 126.196C250.223 125.841 250.576 125.351 250.817 124.726C251.059 124.096 251.18 123.369 251.18 122.545C251.18 121.731 251.061 121.018 250.824 120.408C250.588 119.792 250.237 119.314 249.773 118.973C249.309 118.627 248.736 118.455 248.055 118.455C247.344 118.455 246.752 118.637 246.279 119.001C245.81 119.361 245.457 119.851 245.221 120.472C244.989 121.087 244.873 121.778 244.873 122.545C244.873 123.322 244.991 124.027 245.228 124.662C245.469 125.292 245.824 125.794 246.293 126.168C246.767 126.537 247.354 126.722 248.055 126.722ZM260.533 132.318C259.724 132.318 259.028 132.214 258.445 132.006C257.863 131.802 257.377 131.532 256.989 131.196C256.606 130.865 256.3 130.509 256.073 130.131L257.408 129.193C257.56 129.392 257.751 129.619 257.983 129.875C258.215 130.135 258.533 130.36 258.935 130.55C259.342 130.744 259.875 130.841 260.533 130.841C261.414 130.841 262.141 130.628 262.714 130.202C263.287 129.776 263.573 129.108 263.573 128.199V125.983H263.431C263.308 126.182 263.133 126.428 262.905 126.722C262.683 127.01 262.361 127.268 261.939 127.496C261.523 127.718 260.959 127.83 260.249 127.83C259.368 127.83 258.578 127.621 257.877 127.205C257.181 126.788 256.629 126.182 256.222 125.386C255.82 124.591 255.618 123.625 255.618 122.489C255.618 121.371 255.815 120.398 256.208 119.57C256.601 118.736 257.148 118.092 257.849 117.638C258.549 117.179 259.359 116.949 260.278 116.949C260.988 116.949 261.551 117.067 261.968 117.304C262.389 117.536 262.711 117.801 262.934 118.099C263.161 118.393 263.336 118.634 263.459 118.824H263.63V117.091H265.249V128.312C265.249 129.25 265.036 130.012 264.61 130.599C264.189 131.191 263.62 131.625 262.905 131.899C262.195 132.179 261.404 132.318 260.533 132.318ZM260.476 126.324C261.149 126.324 261.717 126.17 262.181 125.862C262.645 125.554 262.998 125.112 263.239 124.534C263.481 123.956 263.601 123.265 263.601 122.46C263.601 121.674 263.483 120.981 263.246 120.379C263.01 119.778 262.659 119.307 262.195 118.966C261.731 118.625 261.158 118.455 260.476 118.455C259.766 118.455 259.174 118.634 258.701 118.994C258.232 119.354 257.879 119.837 257.643 120.443C257.411 121.049 257.295 121.722 257.295 122.46C257.295 123.218 257.413 123.888 257.65 124.47C257.891 125.048 258.246 125.502 258.715 125.834C259.189 126.161 259.776 126.324 260.476 126.324ZM272.891 128.227C271.84 128.227 270.933 127.995 270.171 127.531C269.413 127.062 268.829 126.409 268.417 125.571C268.01 124.728 267.806 123.748 267.806 122.631C267.806 121.513 268.01 120.528 268.417 119.676C268.829 118.819 269.402 118.152 270.135 117.673C270.874 117.19 271.736 116.949 272.721 116.949C273.289 116.949 273.85 117.044 274.404 117.233C274.958 117.422 275.462 117.73 275.917 118.156C276.371 118.578 276.733 119.136 277.003 119.832C277.273 120.528 277.408 121.385 277.408 122.403V123.114H268.999V121.665H275.704C275.704 121.049 275.581 120.5 275.334 120.017C275.093 119.534 274.747 119.153 274.297 118.874C273.852 118.594 273.327 118.455 272.721 118.455C272.053 118.455 271.475 118.62 270.988 118.952C270.505 119.278 270.133 119.705 269.873 120.23C269.612 120.756 269.482 121.319 269.482 121.92V122.886C269.482 123.71 269.624 124.409 269.908 124.982C270.197 125.55 270.597 125.983 271.108 126.281C271.62 126.575 272.214 126.722 272.891 126.722C273.331 126.722 273.729 126.66 274.084 126.537C274.444 126.409 274.754 126.22 275.015 125.969C275.275 125.713 275.476 125.396 275.618 125.017L277.238 125.472C277.067 126.021 276.781 126.504 276.378 126.92C275.976 127.332 275.479 127.654 274.887 127.886C274.295 128.114 273.63 128.227 272.891 128.227ZM284.702 117.091V118.511H279.049V117.091H284.702ZM280.697 114.477H282.373V124.875C282.373 125.348 282.441 125.704 282.579 125.94C282.721 126.172 282.901 126.329 283.118 126.409C283.341 126.485 283.575 126.523 283.822 126.523C284.006 126.523 284.158 126.513 284.276 126.494C284.394 126.471 284.489 126.452 284.56 126.438L284.901 127.943C284.787 127.986 284.629 128.028 284.425 128.071C284.222 128.118 283.964 128.142 283.651 128.142C283.178 128.142 282.714 128.04 282.259 127.837C281.809 127.633 281.435 127.323 281.137 126.906C280.843 126.49 280.697 125.964 280.697 125.33V114.477ZM294.756 119.534L293.25 119.96C293.155 119.709 293.015 119.465 292.831 119.229C292.651 118.987 292.405 118.788 292.092 118.632C291.78 118.476 291.38 118.398 290.892 118.398C290.224 118.398 289.668 118.552 289.223 118.859C288.782 119.162 288.562 119.548 288.562 120.017C288.562 120.434 288.714 120.763 289.017 121.004C289.32 121.246 289.793 121.447 290.437 121.608L292.057 122.006C293.032 122.242 293.759 122.605 294.237 123.092C294.715 123.575 294.954 124.198 294.954 124.96C294.954 125.585 294.774 126.144 294.415 126.636C294.059 127.129 293.562 127.517 292.923 127.801C292.284 128.085 291.541 128.227 290.693 128.227C289.58 128.227 288.659 127.986 287.93 127.503C287.201 127.02 286.739 126.314 286.545 125.386L288.136 124.989C288.288 125.576 288.574 126.016 288.996 126.31C289.422 126.603 289.978 126.75 290.665 126.75C291.446 126.75 292.066 126.584 292.525 126.253C292.989 125.917 293.221 125.514 293.221 125.045C293.221 124.667 293.089 124.349 292.824 124.094C292.559 123.833 292.151 123.639 291.602 123.511L289.784 123.085C288.785 122.848 288.051 122.482 287.582 121.984C287.118 121.482 286.886 120.855 286.886 120.102C286.886 119.487 287.059 118.942 287.405 118.469C287.755 117.995 288.231 117.624 288.832 117.354C289.438 117.084 290.125 116.949 290.892 116.949C291.971 116.949 292.819 117.186 293.434 117.659C294.055 118.133 294.495 118.758 294.756 119.534Z" fill="white"/>
<path d="M138 131L136 129M127.5 130C128.748 130 129.983 129.754 131.135 129.277C132.288 128.799 133.335 128.1 134.218 127.218C135.1 126.335 135.799 125.288 136.277 124.135C136.754 122.983 137 121.748 137 120.5C137 119.252 136.754 118.017 136.277 116.865C135.799 115.712 135.1 114.665 134.218 113.782C133.335 112.9 132.288 112.201 131.135 111.723C129.983 111.246 128.748 111 127.5 111C124.98 111 122.564 112.001 120.782 113.782C119.001 115.564 118 117.98 118 120.5C118 123.02 119.001 125.436 120.782 127.218C122.564 128.999 124.98 130 127.5 130Z" stroke="white" stroke-width="1.5" stroke-linecap="round" stroke-linejoin="round"/>
<defs>
<filter id="filter0_i_40_849" x="3" y="0" width="419" height="856" filterUnits="userSpaceOnUse" color-interpolation-filters="sRGB">
<feFlood flood-opacity="0" result="BackgroundImageFix"/>
<feBlend mode="normal" in="SourceGraphic" in2="BackgroundImageFix" result="shape"/>
<feColorMatrix in="SourceAlpha" type="matrix" values="0 0 0 0 0 0 0 0 0 0 0 0 0 0 0 0 0 0 127 0" result="hardAlpha"/>
<feOffset/>
<feGaussianBlur stdDeviation="4"/>
<feComposite in2="hardAlpha" operator="arithmetic" k2="-1" k3="1"/>
<feColorMatrix type="matrix" values="0 0 0 0 1 0 0 0 0 1 0 0 0 0 1 0 0 0 0.9 0"/>
<feBlend mode="normal" in2="shape" result="effect1_innerShadow_40_849"/>
</filter>
<filter id="filter1_i_40_849" x="0" y="136" width="4" height="30" filterUnits="userSpaceOnUse" color-interpolation-filters="sRGB">
<feFlood flood-opacity="0" result="BackgroundImageFix"/>
<feBlend mode="normal" in="SourceGraphic" in2="BackgroundImageFix" result="shape"/>
<feColorMatrix in="SourceAlpha" type="matrix" values="0 0 0 0 0 0 0 0 0 0 0 0 0 0 0 0 0 0 127 0" result="hardAlpha"/>
<feOffset dx="1"/>
<feGaussianBlur stdDeviation="1"/>
<feComposite in2="hardAlpha" operator="arithmetic" k2="-1" k3="1"/>
<feColorMatrix type="matrix" values="0 0 0 0 1 0 0 0 0 1 0 0 0 0 1 0 0 0 0.5 0"/>
<feBlend mode="normal" in2="shape" result="effect1_innerShadow_40_849"/>
</filter>
<filter id="filter2_i_40_849" x="0" y="198" width="4" height="62" filterUnits="userSpaceOnUse" color-interpolation-filters="sRGB">
<feFlood flood-opacity="0" result="BackgroundImageFix"/>
<feBlend mode="normal" in="SourceGraphic" in2="BackgroundImageFix" result="shape"/>
<feColorMatrix in="SourceAlpha" type="matrix" values="0 0 0 0 0 0 0 0 0 0 0 0 0 0 0 0 0 0 127 0" result="hardAlpha"/>
<feOffset dx="1"/>
<feGaussianBlur stdDeviation="1"/>
<feComposite in2="hardAlpha" operator="arithmetic" k2="-1" k3="1"/>
<feColorMatrix type="matrix" values="0 0 0 0 1 0 0 0 0 1 0 0 0 0 1 0 0 0 0.5 0"/>
<feBlend mode="normal" in2="shape" result="effect1_innerShadow_40_849"/>
</filter>
<filter id="filter3_i_40_849" x="0" y="278" width="4" height="62" filterUnits="userSpaceOnUse" color-interpolation-filters="sRGB">
<feFlood flood-opacity="0" result="BackgroundImageFix"/>
<feBlend mode="normal" in="SourceGraphic" in2="BackgroundImageFix" result="shape"/>
<feColorMatrix in="SourceAlpha" type="matrix" values="0 0 0 0 0 0 0 0 0 0 0 0 0 0 0 0 0 0 127 0" result="hardAlpha"/>
<feOffset dx="1"/>
<feGaussianBlur stdDeviation="1"/>
<feComposite in2="hardAlpha" operator="arithmetic" k2="-1" k3="1"/>
<feColorMatrix type="matrix" values="0 0 0 0 1 0 0 0 0 1 0 0 0 0 1 0 0 0 0.5 0"/>
<feBlend mode="normal" in2="shape" result="effect1_innerShadow_40_849"/>
</filter>
<filter id="filter4_i_40_849" x="421" y="220" width="4" height="100" filterUnits="userSpaceOnUse" color-interpolation-filters="sRGB">
<feFlood flood-opacity="0" result="BackgroundImageFix"/>
<feBlend mode="normal" in="SourceGraphic" in2="BackgroundImageFix" result="shape"/>
<feColorMatrix in="SourceAlpha" type="matrix" values="0 0 0 0 0 0 0 0 0 0 0 0 0 0 0 0 0 0 127 0" result="hardAlpha"/>
<feOffset dx="-1"/>
<feGaussianBlur stdDeviation="1"/>
<feComposite in2="hardAlpha" operator="arithmetic" k2="-1" k3="1"/>
<feColorMatrix type="matrix" values="0 0 0 0 1 0 0 0 0 1 0 0 0 0 1 0 0 0 0.5 0"/>
<feBlend mode="normal" in2="shape" result="effect1_innerShadow_40_849"/>
</filter>
<linearGradient id="paint0_linear_40_849" x1="212.5" y1="0" x2="212.5" y2="856" gradientUnits="userSpaceOnUse">
<stop stop-color="white" stop-opacity="0.6"/>
<stop offset="1" stop-color="white" stop-opacity="0.3"/>
</linearGradient>
</defs>
</svg>
