<svg width="425" height="856" viewBox="0 0 425 856" fill="none" xmlns="http://www.w3.org/2000/svg">
<g filter="url(#filter0_i_40_882)">
<rect x="3" width="419" height="856" rx="62" fill="#1A1A1A"/>
</g>
<rect x="3.5" y="0.5" width="418" height="855" rx="61.5" stroke="url(#paint0_linear_40_882)" stroke-opacity="0.5"/>
<rect x="7" y="4" width="411" height="848" rx="58" fill="black"/>
<g filter="url(#filter1_i_40_882)">
<path d="M0 137.6C0 137.04 0 136.76 0.108993 136.546C0.204867 136.358 0.357847 136.205 0.546009 136.109C0.759921 136 1.03995 136 1.6 136H3V166H1.6C1.03995 166 0.759921 166 0.546009 165.891C0.357847 165.795 0.204867 165.642 0.108993 165.454C0 165.24 0 164.96 0 164.4V137.6Z" fill="#333333"/>
</g>
<g filter="url(#filter2_i_40_882)">
<path d="M0 199.6C0 199.04 0 198.76 0.108993 198.546C0.204867 198.358 0.357847 198.205 0.546009 198.109C0.759921 198 1.03995 198 1.6 198H3V260H1.6C1.03995 260 0.759921 260 0.546009 259.891C0.357847 259.795 0.204867 259.642 0.108993 259.454C0 259.24 0 258.96 0 258.4V199.6Z" fill="#333333"/>
</g>
<g filter="url(#filter3_i_40_882)">
<path d="M0 279.6C0 279.04 0 278.76 0.108993 278.546C0.204867 278.358 0.357847 278.205 0.546009 278.109C0.759921 278 1.03995 278 1.6 278H3V340H1.6C1.03995 340 0.759921 340 0.546009 339.891C0.357847 339.795 0.204867 339.642 0.108993 339.454C0 339.24 0 338.96 0 338.4V279.6Z" fill="#333333"/>
</g>
<g filter="url(#filter4_i_40_882)">
<path d="M422 220H423.4C423.96 220 424.24 220 424.454 220.109C424.642 220.205 424.795 220.358 424.891 220.546C425 220.76 425 221.04 425 221.6V318.4C425 318.96 425 319.24 424.891 319.454C424.795 319.642 424.642 319.795 424.454 319.891C424.24 320 423.96 320 423.4 320H422V220Z" fill="#333333"/>
</g>
<rect x="25" y="22" width="375" height="812" rx="40" fill="white"/>
<rect x="25" y="75" width="375" height="759" rx="30" fill="#D9D9D9"/>
<path d="M129.161 194.727C129.161 196.261 128.884 197.587 128.33 198.705C127.776 199.822 127.016 200.684 126.05 201.29C125.084 201.896 123.981 202.199 122.741 202.199C121.5 202.199 120.397 201.896 119.431 201.29C118.465 200.684 117.705 199.822 117.151 198.705C116.597 197.587 116.32 196.261 116.32 194.727C116.32 193.193 116.597 191.867 117.151 190.75C117.705 189.633 118.465 188.771 119.431 188.165C120.397 187.559 121.5 187.256 122.741 187.256C123.981 187.256 125.084 187.559 126.05 188.165C127.016 188.771 127.776 189.633 128.33 190.75C128.884 191.867 129.161 193.193 129.161 194.727ZM127.456 194.727C127.456 193.468 127.246 192.405 126.824 191.538C126.408 190.672 125.842 190.016 125.127 189.571C124.417 189.126 123.621 188.903 122.741 188.903C121.86 188.903 121.062 189.126 120.347 189.571C119.637 190.016 119.071 190.672 118.65 191.538C118.233 192.405 118.025 193.468 118.025 194.727C118.025 195.987 118.233 197.05 118.65 197.916C119.071 198.783 119.637 199.438 120.347 199.884C121.062 200.329 121.86 200.551 122.741 200.551C123.621 200.551 124.417 200.329 125.127 199.884C125.842 199.438 126.408 198.783 126.824 197.916C127.246 197.05 127.456 195.987 127.456 194.727ZM133.572 195.438V202H131.895V191.091H133.515V192.795H133.657C133.912 192.241 134.301 191.796 134.822 191.46C135.342 191.119 136.015 190.949 136.839 190.949C137.577 190.949 138.224 191.1 138.778 191.403C139.331 191.702 139.762 192.156 140.07 192.767C140.378 193.373 140.532 194.14 140.532 195.068V202H138.856V195.182C138.856 194.325 138.633 193.657 138.188 193.179C137.743 192.696 137.132 192.455 136.356 192.455C135.821 192.455 135.342 192.571 134.921 192.803C134.504 193.035 134.175 193.373 133.934 193.818C133.692 194.263 133.572 194.803 133.572 195.438ZM148.026 202.227C147.004 202.227 146.123 201.986 145.384 201.503C144.646 201.02 144.078 200.355 143.68 199.507C143.282 198.66 143.083 197.691 143.083 196.602C143.083 195.494 143.287 194.517 143.694 193.669C144.106 192.817 144.679 192.152 145.413 191.673C146.151 191.19 147.013 190.949 147.998 190.949C148.765 190.949 149.456 191.091 150.072 191.375C150.687 191.659 151.192 192.057 151.585 192.568C151.978 193.08 152.222 193.676 152.316 194.358H150.64C150.512 193.861 150.228 193.42 149.788 193.037C149.352 192.649 148.765 192.455 148.026 192.455C147.373 192.455 146.8 192.625 146.308 192.966C145.82 193.302 145.439 193.778 145.164 194.393C144.894 195.004 144.759 195.722 144.759 196.545C144.759 197.388 144.892 198.122 145.157 198.747C145.427 199.372 145.806 199.857 146.294 200.203C146.786 200.549 147.364 200.722 148.026 200.722C148.462 200.722 148.857 200.646 149.213 200.494C149.568 200.343 149.868 200.125 150.115 199.841C150.361 199.557 150.536 199.216 150.64 198.818H152.316C152.222 199.462 151.987 200.042 151.613 200.558C151.244 201.07 150.754 201.477 150.143 201.78C149.537 202.078 148.831 202.227 148.026 202.227ZM159.34 202.227C158.289 202.227 157.383 201.995 156.62 201.531C155.863 201.062 155.278 200.409 154.866 199.571C154.459 198.728 154.255 197.748 154.255 196.631C154.255 195.513 154.459 194.528 154.866 193.676C155.278 192.819 155.851 192.152 156.585 191.673C157.323 191.19 158.185 190.949 159.17 190.949C159.738 190.949 160.299 191.044 160.853 191.233C161.407 191.422 161.911 191.73 162.366 192.156C162.82 192.578 163.183 193.136 163.453 193.832C163.722 194.528 163.857 195.385 163.857 196.403V197.114H155.448V195.665H162.153C162.153 195.049 162.03 194.5 161.784 194.017C161.542 193.534 161.196 193.153 160.747 192.874C160.302 192.594 159.776 192.455 159.17 192.455C158.502 192.455 157.925 192.62 157.437 192.952C156.954 193.278 156.582 193.705 156.322 194.23C156.061 194.756 155.931 195.319 155.931 195.92V196.886C155.931 197.71 156.073 198.409 156.357 198.982C156.646 199.55 157.046 199.983 157.558 200.281C158.069 200.575 158.663 200.722 159.34 200.722C159.781 200.722 160.178 200.66 160.534 200.537C160.893 200.409 161.204 200.22 161.464 199.969C161.724 199.713 161.926 199.396 162.068 199.017L163.687 199.472C163.517 200.021 163.23 200.504 162.828 200.92C162.425 201.332 161.928 201.654 161.336 201.886C160.744 202.114 160.079 202.227 159.34 202.227Z" fill="black"/>
<rect x="46" y="96" width="333" height="50" rx="16" fill="#767676"/>
<path d="M79.161 120.727C79.161 122.261 78.8841 123.587 78.3301 124.705C77.7761 125.822 77.0162 126.684 76.0502 127.29C75.0843 127.896 73.9811 128.199 72.7406 128.199C71.5001 128.199 70.3968 127.896 69.4309 127.29C68.465 126.684 67.7051 125.822 67.1511 124.705C66.5971 123.587 66.3201 122.261 66.3201 120.727C66.3201 119.193 66.5971 117.867 67.1511 116.75C67.7051 115.633 68.465 114.771 69.4309 114.165C70.3968 113.559 71.5001 113.256 72.7406 113.256C73.9811 113.256 75.0843 113.559 76.0502 114.165C77.0162 114.771 77.7761 115.633 78.3301 116.75C78.8841 117.867 79.161 119.193 79.161 120.727ZM77.4565 120.727C77.4565 119.468 77.2458 118.405 76.8244 117.538C76.4077 116.672 75.8419 116.016 75.127 115.571C74.4167 115.126 73.6213 114.903 72.7406 114.903C71.8599 114.903 71.0621 115.126 70.3471 115.571C69.6369 116.016 69.0711 116.672 68.6497 117.538C68.233 118.405 68.0247 119.468 68.0247 120.727C68.0247 121.987 68.233 123.05 68.6497 123.916C69.0711 124.783 69.6369 125.438 70.3471 125.884C71.0621 126.329 71.8599 126.551 72.7406 126.551C73.6213 126.551 74.4167 126.329 75.127 125.884C75.8419 125.438 76.4077 124.783 76.8244 123.916C77.2458 123.05 77.4565 121.987 77.4565 120.727ZM83.5716 121.438V128H81.8954V117.091H83.5147V118.795H83.6568C83.9125 118.241 84.3007 117.796 84.8216 117.46C85.3424 117.119 86.0147 116.949 86.8386 116.949C87.5772 116.949 88.2235 117.1 88.7775 117.403C89.3315 117.702 89.7624 118.156 90.0701 118.767C90.3779 119.373 90.5318 120.14 90.5318 121.068V128H88.8556V121.182C88.8556 120.325 88.6331 119.657 88.188 119.179C87.743 118.696 87.1322 118.455 86.3556 118.455C85.8206 118.455 85.3424 118.571 84.921 118.803C84.5043 119.035 84.1752 119.373 83.9338 119.818C83.6923 120.263 83.5716 120.803 83.5716 121.438ZM98.0265 128.227C97.0037 128.227 96.123 127.986 95.3844 127.503C94.6458 127.02 94.0776 126.355 93.6799 125.507C93.2821 124.66 93.0833 123.691 93.0833 122.602C93.0833 121.494 93.2869 120.517 93.6941 119.669C94.106 118.817 94.6789 118.152 95.4128 117.673C96.1515 117.19 97.0132 116.949 97.998 116.949C98.7651 116.949 99.4564 117.091 100.072 117.375C100.687 117.659 101.192 118.057 101.585 118.568C101.978 119.08 102.222 119.676 102.316 120.358H100.64C100.512 119.861 100.228 119.42 99.7878 119.037C99.3522 118.649 98.7651 118.455 98.0265 118.455C97.373 118.455 96.8001 118.625 96.3077 118.966C95.82 119.302 95.4389 119.778 95.1642 120.393C94.8944 121.004 94.7594 121.722 94.7594 122.545C94.7594 123.388 94.892 124.122 95.1571 124.747C95.427 125.372 95.8058 125.857 96.2935 126.203C96.7859 126.549 97.3636 126.722 98.0265 126.722C98.4621 126.722 98.8574 126.646 99.2125 126.494C99.5676 126.343 99.8683 126.125 100.115 125.841C100.361 125.557 100.536 125.216 100.64 124.818H102.316C102.222 125.462 101.987 126.042 101.613 126.558C101.244 127.07 100.754 127.477 100.143 127.78C99.5369 128.078 98.8314 128.227 98.0265 128.227ZM109.34 128.227C108.289 128.227 107.383 127.995 106.62 127.531C105.863 127.062 105.278 126.409 104.866 125.571C104.459 124.728 104.255 123.748 104.255 122.631C104.255 121.513 104.459 120.528 104.866 119.676C105.278 118.819 105.851 118.152 106.585 117.673C107.323 117.19 108.185 116.949 109.17 116.949C109.738 116.949 110.299 117.044 110.853 117.233C111.407 117.422 111.911 117.73 112.366 118.156C112.82 118.578 113.183 119.136 113.453 119.832C113.722 120.528 113.857 121.385 113.857 122.403V123.114H105.448V121.665H112.153C112.153 121.049 112.03 120.5 111.784 120.017C111.542 119.534 111.196 119.153 110.747 118.874C110.302 118.594 109.776 118.455 109.17 118.455C108.502 118.455 107.925 118.62 107.437 118.952C106.954 119.278 106.582 119.705 106.322 120.23C106.061 120.756 105.931 121.319 105.931 121.92V122.886C105.931 123.71 106.073 124.409 106.357 124.982C106.646 125.55 107.046 125.983 107.558 126.281C108.069 126.575 108.663 126.722 109.34 126.722C109.781 126.722 110.178 126.66 110.534 126.537C110.893 126.409 111.204 126.22 111.464 125.969C111.724 125.713 111.926 125.396 112.068 125.017L113.687 125.472C113.517 126.021 113.23 126.504 112.828 126.92C112.425 127.332 111.928 127.654 111.336 127.886C110.744 128.114 110.079 128.227 109.34 128.227Z" fill="white"/>
<rect x="47" y="170" width="51" height="51" rx="8" fill="#767676"/>
<defs>
<filter id="filter0_i_40_882" x="3" y="0" width="419" height="856" filterUnits="userSpaceOnUse" color-interpolation-filters="sRGB">
<feFlood flood-opacity="0" result="BackgroundImageFix"/>
<feBlend mode="normal" in="SourceGraphic" in2="BackgroundImageFix" result="shape"/>
<feColorMatrix in="SourceAlpha" type="matrix" values="0 0 0 0 0 0 0 0 0 0 0 0 0 0 0 0 0 0 127 0" result="hardAlpha"/>
<feOffset/>
<feGaussianBlur stdDeviation="4"/>
<feComposite in2="hardAlpha" operator="arithmetic" k2="-1" k3="1"/>
<feColorMatrix type="matrix" values="0 0 0 0 1 0 0 0 0 1 0 0 0 0 1 0 0 0 0.9 0"/>
<feBlend mode="normal" in2="shape" result="effect1_innerShadow_40_882"/>
</filter>
<filter id="filter1_i_40_882" x="0" y="136" width="4" height="30" filterUnits="userSpaceOnUse" color-interpolation-filters="sRGB">
<feFlood flood-opacity="0" result="BackgroundImageFix"/>
<feBlend mode="normal" in="SourceGraphic" in2="BackgroundImageFix" result="shape"/>
<feColorMatrix in="SourceAlpha" type="matrix" values="0 0 0 0 0 0 0 0 0 0 0 0 0 0 0 0 0 0 127 0" result="hardAlpha"/>
<feOffset dx="1"/>
<feGaussianBlur stdDeviation="1"/>
<feComposite in2="hardAlpha" operator="arithmetic" k2="-1" k3="1"/>
<feColorMatrix type="matrix" values="0 0 0 0 1 0 0 0 0 1 0 0 0 0 1 0 0 0 0.5 0"/>
<feBlend mode="normal" in2="shape" result="effect1_innerShadow_40_882"/>
</filter>
<filter id="filter2_i_40_882" x="0" y="198" width="4" height="62" filterUnits="userSpaceOnUse" color-interpolation-filters="sRGB">
<feFlood flood-opacity="0" result="BackgroundImageFix"/>
<feBlend mode="normal" in="SourceGraphic" in2="BackgroundImageFix" result="shape"/>
<feColorMatrix in="SourceAlpha" type="matrix" values="0 0 0 0 0 0 0 0 0 0 0 0 0 0 0 0 0 0 127 0" result="hardAlpha"/>
<feOffset dx="1"/>
<feGaussianBlur stdDeviation="1"/>
<feComposite in2="hardAlpha" operator="arithmetic" k2="-1" k3="1"/>
<feColorMatrix type="matrix" values="0 0 0 0 1 0 0 0 0 1 0 0 0 0 1 0 0 0 0.5 0"/>
<feBlend mode="normal" in2="shape" result="effect1_innerShadow_40_882"/>
</filter>
<filter id="filter3_i_40_882" x="0" y="278" width="4" height="62" filterUnits="userSpaceOnUse" color-interpolation-filters="sRGB">
<feFlood flood-opacity="0" result="BackgroundImageFix"/>
<feBlend mode="normal" in="SourceGraphic" in2="BackgroundImageFix" result="shape"/>
<feColorMatrix in="SourceAlpha" type="matrix" values="0 0 0 0 0 0 0 0 0 0 0 0 0 0 0 0 0 0 127 0" result="hardAlpha"/>
<feOffset dx="1"/>
<feGaussianBlur stdDeviation="1"/>
<feComposite in2="hardAlpha" operator="arithmetic" k2="-1" k3="1"/>
<feColorMatrix type="matrix" values="0 0 0 0 1 0 0 0 0 1 0 0 0 0 1 0 0 0 0.5 0"/>
<feBlend mode="normal" in2="shape" result="effect1_innerShadow_40_882"/>
</filter>
<filter id="filter4_i_40_882" x="421" y="220" width="4" height="100" filterUnits="userSpaceOnUse" color-interpolation-filters="sRGB">
<feFlood flood-opacity="0" result="BackgroundImageFix"/>
<feBlend mode="normal" in="SourceGraphic" in2="BackgroundImageFix" result="shape"/>
<feColorMatrix in="SourceAlpha" type="matrix" values="0 0 0 0 0 0 0 0 0 0 0 0 0 0 0 0 0 0 127 0" result="hardAlpha"/>
<feOffset dx="-1"/>
<feGaussianBlur stdDeviation="1"/>
<feComposite in2="hardAlpha" operator="arithmetic" k2="-1" k3="1"/>
<feColorMatrix type="matrix" values="0 0 0 0 1 0 0 0 0 1 0 0 0 0 1 0 0 0 0.5 0"/>
<feBlend mode="normal" in2="shape" result="effect1_innerShadow_40_882"/>
</filter>
<linearGradient id="paint0_linear_40_882" x1="212.5" y1="0" x2="212.5" y2="856" gradientUnits="userSpaceOnUse">
<stop stop-color="white" stop-opacity="0.6"/>
<stop offset="1" stop-color="white" stop-opacity="0.3"/>
</linearGradient>
</defs>
</svg>
